<?xml version="1.0" encoding="UTF-8" standalone="no" ?>
<!DOCTYPE svg PUBLIC "-//W3C//DTD SVG 1.1//EN" "http://www.w3.org/Graphics/SVG/1.1/DTD/svg11.dtd">
<svg xmlns="http://www.w3.org/2000/svg" xmlns:xlink="http://www.w3.org/1999/xlink" version="1.1" width="192" height="128" viewBox="30.139855177397692 29.208138673820173 192 128" xml:space="preserve">
<desc>Created with Fabric.js 5.3.0</desc>
<defs>
</defs>
<g transform="matrix(1 0 0 1 126.1398551774 93.2081386738)" id="76BQz3fNED7cE5vZ_M_at"  >
<path style="stroke: rgb(192,230,7); stroke-width: 0; stroke-dasharray: none; stroke-linecap: butt; stroke-dashoffset: 0; stroke-linejoin: miter; stroke-miterlimit: 4; fill: rgb(0,149,255); fill-rule: nonzero; opacity: 1;" vector-effect="non-scaling-stroke"  transform=" translate(-95.99999, -63.99999)" d="M 159.99999 63.99999 C 177.66399 63.99999 191.99999 78.33599 191.99999 95.99999 C 191.99999 113.66399 177.66398999999998 127.99999 159.99999 127.99999 C 142.34081 127.99999 128.00781 113.67181 127.99999 96.01444 C 127.99217 113.67181 113.65916999999999 127.99999 95.99999 127.99999 C 78.34081 127.99999 64.00780999999999 113.67181 63.99999 96.01444 C 63.992169999999994 113.67181 49.659169999999996 127.99999 31.999989999999997 127.99999 C 14.335989999999995 127.99999 -0.000010000000003174137 113.66399 -0.000010000000003174137 95.99999 C -0.000010000000003174137 78.34081 14.328169999999997 64.00780999999999 31.985539999999997 63.99999 C 14.328169999999997 63.992169999999994 -0.000010000000003174137 49.659169999999996 -0.000010000000003174137 31.999989999999997 C -0.000010000000003174137 14.335989999999995 14.335989999999997 -0.000010000000003174137 31.999989999999997 -0.000010000000003174137 C 49.66399 -0.000010000000003174137 63.99999 14.335989999999997 63.99999 31.999989999999997 C 63.99999 49.659169999999996 49.671809999999994 63.99217 32.01443999999999 63.99999 C 49.66699 64.00780999999999 63.992169999999994 78.33297999999999 63.999979999999994 95.98553 C 64.00779999999999 78.32816 78.3408 63.999979999999994 95.99998 63.999979999999994 C 113.65915999999999 63.999979999999994 127.99216 78.32816 127.99998 95.98553 C 128.0078 78.32816 142.3408 63.999979999999994 159.99998 63.999979999999994 z" stroke-linecap="round" />
</g>
</svg>