<?xml version="1.0" encoding="UTF-8" standalone="no" ?>
<!DOCTYPE svg PUBLIC "-//W3C//DTD SVG 1.1//EN" "http://www.w3.org/Graphics/SVG/1.1/DTD/svg11.dtd">
<svg xmlns="http://www.w3.org/2000/svg" xmlns:xlink="http://www.w3.org/1999/xlink" version="1.1" width="98.2143" height="104.4748985105" viewBox="178.83427219459134 364.3816307758847 98.2143 104.4748985105" xml:space="preserve">
<desc>Created with Fabric.js 5.3.0</desc>
<defs>
</defs>
<g transform="matrix(1 0 0 1 227.9414221946 416.6190800311)" id="1jOfnewNav7KtzBrLRYlm"  >
<g style=""   >
		<g transform="matrix(0 0.5432476985 -0.5826491883 0 4.289876499 -42.0392096043)" id="J3BJvMU0lq_zV_NU66BGP"  >
<path style="stroke: none; stroke-width: 1; stroke-dasharray: none; stroke-linecap: butt; stroke-dashoffset: 0; stroke-linejoin: miter; stroke-miterlimit: 4; fill: rgb(0,0,0); fill-rule: nonzero; opacity: 1.7;"  transform=" translate(-18.272725, -20)" d="M 18.54545 0 L 36.54545 40 L 18.545450000000002 31.57895 z M 18 31.57895 L 0 40 L 18 0 z" stroke-linecap="round" />
</g>
		<g transform="matrix(1 0 0 1 0 3.1372142553)" id="Y0txd7dtKLyJSC-OAGkqG"  >
<path style="stroke: rgb(104,235,105); stroke-width: 0; stroke-dasharray: none; stroke-linecap: butt; stroke-dashoffset: 0; stroke-linejoin: miter; stroke-miterlimit: 4; fill: rgb(0,0,0); fill-rule: nonzero; opacity: 1.7;"  transform=" translate(-49.10715, -49.1002348285)" d="M 98.2143 49.09332 C 98.2143 76.20047 76.2143 98.20047 49.10715 98.20047 C 21.999999999999996 98.20047 0 76.20047 0 49.09332 C 0 22.379299999999997 21.3665 0.6253699999999967 47.93103 0 L 47.93103 8.61009 C 26.11825 9.23312 8.607140000000001 27.130679999999998 8.607140000000001 49.09331 C 8.607140000000001 71.44931 26.75114 89.59331 49.10714 89.59331 C 71.46314000000001 89.59331 89.60714 71.44931 89.60714 49.09331 C 89.60714 48.8447 89.6049 48.5966 89.60043 48.349050000000005 L 98.20877 48.349050000000005 C 98.21246000000001 48.596700000000006 98.2143 48.844800000000006 98.2143 49.093320000000006 z" stroke-linecap="round" />
</g>
</g>
</g>
</svg>