<?xml version="1.0" encoding="UTF-8" standalone="no" ?>
<!DOCTYPE svg PUBLIC "-//W3C//DTD SVG 1.1//EN" "http://www.w3.org/Graphics/SVG/1.1/DTD/svg11.dtd">
<svg xmlns="http://www.w3.org/2000/svg" xmlns:xlink="http://www.w3.org/1999/xlink" version="1.1" width="314.49996545651186" height="314.49996545651203" viewBox="171.44370297954407 73.50001787954398 314.49996545651186 314.49996545651203" xml:space="preserve">
<desc>Created with Fabric.js 5.3.0</desc>
<defs>
</defs>
<g transform="matrix(8.0921057489 0 0 8.0921057489 328.6936857078 230.7500006078)" id="9QsnaR_uKJ7E7xExofIFF"  >
<linearGradient id="SVGID_2043" gradientUnits="userSpaceOnUse" gradientTransform="matrix(1 0 0 1 -18.9999967252 -18.9999967252)"  x1="18.99999672516462" y1="0.21625801522674593" x2="18.99999672516462" y2="37.41300375003796">
<stop offset="0%" style="stop-color:#DDB43E;stop-opacity: 1"/>
<stop offset="83.13953468180266%" style="stop-color:#DDB43E;stop-opacity: 1"/>
<stop offset="100%" style="stop-color:#B6963A;stop-opacity: 1"/>
</linearGradient>
<path style="stroke: rgb(57,16,197); stroke-width: 7; stroke-dasharray: none; stroke-linecap: butt; stroke-dashoffset: 0; stroke-linejoin: miter; stroke-miterlimit: 4; fill: url(#SVGID_2043); fill-rule: nonzero; opacity: 1;" vector-effect="non-scaling-stroke"  transform=" translate(0, 0)" d="M -19 -10.93898 C -19 -15.39096 -15.39096 -19 -10.93898 -19 L 10.93898 -19 L 10.93898 -19 C 15.39096 -19 19 -15.39096 19 -10.93898 L 19 10.93898 L 19 10.93898 C 19 15.39096 15.39096 19 10.93898 19 L -10.93898 19 L -10.93898 19 C -15.39096 19 -19 15.39096 -19 10.93898 z" stroke-linecap="round" />
</g>
<g transform="matrix(7.7631592328 0 0 7.7631592328 328.6936857078 230.7500006078)" id="U7LaaCXip_hwg_MDD4ldE"  >
<path style="stroke: rgb(255,255,255); stroke-opacity: 0.65; stroke-width: 6; stroke-dasharray: none; stroke-linecap: butt; stroke-dashoffset: 0; stroke-linejoin: miter; stroke-miterlimit: 4; fill: none; fill-rule: nonzero; opacity: 1;" vector-effect="non-scaling-stroke"  transform=" translate(0, 0)" d="M -19 -10.93898 C -19 -15.39096 -15.39096 -19 -10.93898 -19 L 10.93898 -19 L 10.93898 -19 C 15.39096 -19 19 -15.39096 19 -10.93898 L 19 10.93898 L 19 10.93898 C 19 15.39096 15.39096 19 10.93898 19 L -10.93898 19 L -10.93898 19 C -15.39096 19 -19 15.39096 -19 10.93898 z" stroke-linecap="round" />
</g>
<g transform="matrix(3.0219463484 0 0 3.021944233 328.6936857078 200.3585346274)" id="5HtFjL8pTHjeDQb0_z0Al"  >
<linearGradient id="SVGID_354" gradientUnits="userSpaceOnUse" gradientTransform="matrix(1 0 0 1 0 0)"  x1="33.046295" y1="-0.8272819771915216" x2="33.046295" y2="50.503640813685095">
<stop offset="0%" style="stop-color:#7F5BFF;stop-opacity: 0.9882352941176471"/>
<stop offset="100%" style="stop-color:#4E389C;stop-opacity: 1"/>
</linearGradient>
<path style="stroke: rgb(37,26,75); stroke-width: 4; stroke-dasharray: none; stroke-linecap: butt; stroke-dashoffset: 0; stroke-linejoin: miter; stroke-miterlimit: 4; fill: url(#SVGID_354); fill-rule: nonzero; opacity: 1;" vector-effect="non-scaling-stroke"  transform=" translate(-33.046295, -25.500005)" d="M 0 5 L 0 5 C 0 2.24 2.24 0 5 0 C 7.76 0 10 2.24 10 5 C 10 5.00092 10 5.00184 10 5.00277 C 10 5.0033 10 44.999469999999995 10 45.000009999999996 C 10 47.760009999999994 7.76 50.000009999999996 5 50.000009999999996 C 2.24 50.000009999999996 0 47.760009999999994 0 45.000009999999996 L 0 44.99999999999999 L 0 44.99999999999999 z M 58.02152 50 L 54.26816 46.24664 C 50.441790000000005 48.625659999999996 45.92672 50 41.09259 50 C 40.92554 50 40.75888 49.99836 40.59261 49.99509 C 40.42633 49.99836 40.25964 50 40.09258 50 C 26.292579999999997 50 15.092579999999998 38.8 15.092579999999998 25 C 15.092579999999998 11.2 26.292579999999997 0 40.09258 0 C 40.25963 0 40.42629 0.00164 40.59256 0.00491 C 40.75884 0.0016400000000000004 40.92553 0 41.09259 0 C 54.89259 0 66.09259 11.2 66.09259 25 C 66.09259 30.35089 64.4087 35.31089 61.542280000000005 39.37863 L 65.09259 42.928940000000004 L 65.06162 42.95991000000001 C 65.70817000000001 43.80252000000001 66.09259 44.85665000000001 66.09259 46.00001000000001 C 66.09259 48.76001000000001 63.85259 51.00001000000001 61.09259 51.00001000000001 C 59.949220000000004 51.00001000000001 58.89509 50.61559000000001 58.05249 49.96904000000001 L 58.021519999999995 50.00001000000001 L 58.021519999999995 50.00001000000001 z M 55.09259 25 C 55.09259 16.88731 48.64143 10.27222 40.59258 10.00819 C 32.54374 10.27223 26.092589999999998 16.887320000000003 26.092589999999998 25 C 26.092589999999998 33.11269 32.543749999999996 39.727779999999996 40.5926 39.99181 C 48.641439999999996 39.72777 55.09259 33.11268 55.09259 25 z" stroke-linecap="round" />
</g>
<g transform="matrix(2.9058604737 0 0 2.9058584394 328.391171134 316.8149032661)" id="W6wwrxI6R1hh5b__lBaP5"  >
<linearGradient id="SVGID_1938" gradientUnits="userSpaceOnUse" gradientTransform="matrix(1 0 0 1 233.225 194.466)"  x1="34.239999999999995" y1="0" x2="34.239999999999995" y2="16.439999999999984">
<stop offset="0%" style="stop-color:#694CD2;stop-opacity: 1"/>
<stop offset="100%" style="stop-color:#412E83;stop-opacity: 1"/>
</linearGradient>
<path style="stroke: rgb(37,26,75); stroke-width: 2; stroke-dasharray: none; stroke-linecap: butt; stroke-dashoffset: 0; stroke-linejoin: miter; stroke-miterlimit: 4; fill: url(#SVGID_1938); fill-rule: nonzero; opacity: 1;" vector-effect="non-scaling-stroke"  transform=" translate(-267.465, -202.686)" d="M 236.805 210.666 L 233.225 210.666 L 233.225 194.466 L 238.665 194.466 Q 240.125 194.466 241.065 195.016 Q 242.005 195.566 242.465 196.616 Q 242.925 197.666 242.925 199.166 L 242.925 199.166 Q 242.925 201.046 242.305 202.036 Q 241.685 203.026 240.625 203.406 Q 239.565 203.786 238.245 203.786 L 238.245 203.786 L 236.805 203.786 L 236.805 210.666 Z M 236.805 196.986 L 236.805 201.286 L 238.005 201.286 Q 238.665 201.286 239.005 201.046 Q 239.345 200.806 239.455 200.326 Q 239.565 199.846 239.565 199.106 L 239.565 199.106 Q 239.565 198.486 239.475 198.016 Q 239.385 197.546 239.045 197.266 Q 238.705 196.986 237.985 196.986 L 237.985 196.986 L 236.805 196.986 Z M 249.385 210.906 L 249.385 210.906 Q 247.525 210.906 246.475 210.296 Q 245.425 209.686 245.005 208.516 Q 244.585 207.346 244.585 205.646 L 244.585 205.646 L 244.585 194.466 L 248.125 194.466 L 248.125 206.186 Q 248.125 206.686 248.205 207.186 Q 248.285 207.686 248.555 208.006 Q 248.825 208.326 249.385 208.326 L 249.385 208.326 Q 249.965 208.326 250.225 208.006 Q 250.485 207.686 250.555 207.186 Q 250.625 206.686 250.625 206.186 L 250.625 206.186 L 250.625 194.466 L 254.185 194.466 L 254.185 205.646 Q 254.185 207.346 253.755 208.516 Q 253.325 209.686 252.285 210.296 Q 251.245 210.906 249.385 210.906 Z M 263.425 210.666 L 255.905 210.666 L 255.905 208.506 L 259.865 196.886 L 256.085 196.886 L 256.085 194.466 L 263.385 194.466 L 263.385 196.486 L 259.365 208.246 L 263.425 208.246 L 263.425 210.666 Z M 272.145 210.666 L 264.625 210.666 L 264.625 208.506 L 268.585 196.886 L 264.805 196.886 L 264.805 194.466 L 272.105 194.466 L 272.105 196.486 L 268.085 208.246 L 272.145 208.246 L 272.145 210.666 Z M 281.165 210.666 L 273.865 210.666 L 273.865 194.466 L 277.445 194.466 L 277.445 208.246 L 281.165 208.246 L 281.165 210.666 Z M 289.945 210.666 L 282.625 210.666 L 282.625 194.466 L 289.905 194.466 L 289.905 196.906 L 286.205 196.906 L 286.205 200.926 L 289.025 200.926 L 289.025 203.406 L 286.205 203.406 L 286.205 208.246 L 289.945 208.246 L 289.945 210.666 Z M 295.205 210.666 L 291.625 210.666 L 291.625 194.466 L 296.085 194.466 Q 297.725 194.466 298.925 194.826 Q 300.125 195.186 300.795 196.116 Q 301.465 197.046 301.465 198.746 L 301.465 198.746 Q 301.465 199.746 301.305 200.526 Q 301.145 201.306 300.715 201.876 Q 300.285 202.446 299.485 202.826 L 299.485 202.826 L 301.705 210.666 L 298.005 210.666 L 296.225 203.406 L 295.205 203.406 L 295.205 210.666 Z M 295.205 196.866 L 295.205 201.346 L 296.205 201.346 Q 296.965 201.346 297.385 201.076 Q 297.805 200.806 297.975 200.296 Q 298.145 199.786 298.145 199.066 L 298.145 199.066 Q 298.145 198.026 297.765 197.446 Q 297.385 196.866 296.365 196.866 L 296.365 196.866 L 295.205 196.866 Z" stroke-linecap="round" />
</g>
</svg>