<svg xmlns="http://www.w3.org/2000/svg" xml:space="preserve" viewBox="0 0 423 370">
    <g transform="matrix(6.23183 0 0 1.67172 202.2 293)">
        <linearGradient id="a" gradientUnits="userSpaceOnUse" gradientTransform="translate(-31.7 -39.3)" x1="29.4" y1="-.6" x2="29.8" y2="77.2">
            <stop offset="0%" stop-color="#f7de57"/>
            <stop offset="100%" stop-color="#ffdb20"/>
        </linearGradient>
        <filter id="b" y="-25.1%" height="150.2%" x="-26.3%" width="152.6%">
            <feGaussianBlur in="SourceAlpha" stdDeviation="1"/>
            <feOffset dx="2" dy="2" result="oBlur"/>
            <feFlood flood-color="#000" flood-opacity="1"/>
            <feComposite in2="oBlur" operator="in"/>
            <feMerge>
                <feMergeNode/>
                <feMergeNode in="SourceGraphic"/>
            </feMerge>
        </filter>
        <path vector-effect="non-scaling-stroke" d="M-29.5-25c.1-3 .8-5.3 1.6-5.4l54.2-8.8c.8-.2 1.6 2 1.8 5.1l3.5 62.9c.2 2.6 0 5.3-.5 7.3-.4 2-1 3.2-1.8 3.2l-59.2-4.4c-.5 0-1-.9-1.3-2.4-.4-1.5-.5-3.5-.4-5.4z" stroke="#fff" stroke-width="4" fill="url(#a)" filter="url(#b)"/>
    </g>
    <path vector-effect="non-scaling-stroke" d="M-30.7 8h-3.5V-8.2h5.4c1 0 1.8.2 2.4.5.6.4 1 1 1.4 1.6.3.7.5 1.6.5 2.6 0 1.2-.2 2.2-.7 2.9-.4.6-1 1-1.6 1.3a7 7 0 0 1-2.4.4h-1.5zm0-13.7v4.3h1.2c.5 0 .8 0 1-.2.3-.2.4-.4.5-.8l.1-1.2v-1l-.5-.8c-.2-.2-.6-.3-1-.3zm12.6 14c-1.2 0-2.2-.3-2.9-.7-.7-.4-1.2-1-1.5-1.8-.2-.8-.4-1.7-.4-2.8V-8.2h3.6V4.5c0 .3.2.6.4.8.2.2.4.3.8.3s.7 0 .9-.3l.3-.8V-8.2h3.6V3c0 1-.1 2-.4 2.8-.3.8-.8 1.4-1.5 1.8-.7.4-1.6.6-2.9.6zM-4 8h-7.5V5.8l4-11.6h-3.8v-2.4H-4v2L-8 5.6h4zm8.8 0h-7.5V5.8l4-11.6h-3.9v-2.4h7.3v2L.6 5.6h4zm9 0H6.4V-8.2H10V5.6h3.7zm8.8 0h-7.3V-8.2h7.2v2.4h-3.7v4h2.9V.7h-2.9v4.9h3.8zm5.2 0h-3.5V-8.2h4.4c1.1 0 2 .1 2.9.3.8.3 1.4.7 1.8 1.3.5.7.7 1.5.7 2.7a9 9 0 0 1-.2 1.7c0 .6-.3 1-.5 1.4-.3.4-.7.7-1.3 1L34.2 8h-3.7L28.8.7h-1zm0-13.8v4.5h1c.5 0 1-.1 1.2-.3.3-.2.5-.4.6-.8l.2-1.2a3 3 0 0 0-.4-1.6c-.3-.4-.7-.6-1.4-.6z" stroke="#fff" stroke-width="2" fill="none" transform="matrix(3.75292 0 0 2.6764 202.5 304)"/>
    <g transform="matrix(3.75292 0 0 2.6764 201.5 303)">
        <linearGradient id="c" gradientUnits="userSpaceOnUse" gradientTransform="translate(-34.2 -8.2)" x1="34.2" y1="16.6" x2="34.2" y2="0">
            <stop offset="0%" stop-color="#3113a6"/>
            <stop offset="100%" stop-color="#2e1398"/>
        </linearGradient>
        <filter id="d" y="-32.2%" height="164.3%" x="-22.9%" width="145.8%">
            <feGaussianBlur in="SourceAlpha" stdDeviation=".5"/>
            <feOffset dx="1" dy="1" result="oBlur"/>
            <feFlood flood-color="#FFF" flood-opacity=".2"/>
            <feComposite in2="oBlur" operator="in"/>
            <feMerge>
                <feMergeNode/>
                <feMergeNode in="SourceGraphic"/>
            </feMerge>
        </filter>
        <path vector-effect="non-scaling-stroke" d="M-30.7 8h-3.5V-8.2h5.4c1 0 1.8.2 2.4.5.6.4 1 1 1.4 1.6.3.7.5 1.6.5 2.6 0 1.2-.2 2.2-.7 2.9-.4.6-1 1-1.6 1.3a7 7 0 0 1-2.4.4h-1.5zm0-13.7v4.3h1.2c.5 0 .8 0 1-.2.3-.2.4-.4.5-.8l.1-1.2v-1l-.5-.8c-.2-.2-.6-.3-1-.3zm12.6 14c-1.2 0-2.2-.3-2.9-.7-.7-.4-1.2-1-1.5-1.8-.2-.8-.4-1.7-.4-2.8V-8.2h3.6V4.5c0 .3.2.6.4.8.2.2.4.3.8.3s.7 0 .9-.3l.3-.8V-8.2h3.6V3c0 1-.1 2-.4 2.8-.3.8-.8 1.4-1.5 1.8-.7.4-1.6.6-2.9.6zM-4 8h-7.5V5.8l4-11.6h-3.8v-2.4H-4v2L-8 5.6h4zm8.8 0h-7.5V5.8l4-11.6h-3.9v-2.4h7.3v2L.6 5.6h4zm9 0H6.4V-8.2H10V5.6h3.7zm8.8 0h-7.3V-8.2h7.2v2.4h-3.7v4h2.9V.7h-2.9v4.9h3.8zm5.2 0h-3.5V-8.2h4.4c1.1 0 2 .1 2.9.3.8.3 1.4.7 1.8 1.3.5.7.7 1.5.7 2.7a9 9 0 0 1-.2 1.7c0 .6-.3 1-.5 1.4-.3.4-.7.7-1.3 1L34.2 8h-3.7L28.8.7h-1zm0-13.8v4.5h1c.5 0 1-.1 1.2-.3.3-.2.5-.4.6-.8l.2-1.2a3 3 0 0 0-.4-1.6c-.3-.4-.7-.6-1.4-.6z" stroke="#fff" stroke-width="0" fill="url(#c)" filter="url(#d)"/>
    </g>
    <g transform="matrix(1 0 0 .99863 194.5 132.5) scale(1 1.0014)">
        <linearGradient id="e" gradientUnits="userSpaceOnUse" x1="158" y1="-2.5" x2="158" y2="255.1">
            <stop offset="0%" stop-color="#2a0ba1"/>
            <stop offset="100%" stop-color="#221068"/>
        </linearGradient>
        <filter id="f" y="-23.1%" height="146.2%" x="-22.5%" width="145.1%">
            <feGaussianBlur in="SourceAlpha" stdDeviation="2"/>
            <feOffset dx="4" dy="4" result="oBlur"/>
            <feFlood flood-color="#000" flood-opacity="1"/>
            <feComposite in2="oBlur" operator="in"/>
            <feMerge>
                <feMergeNode/>
                <feMergeNode in="SourceGraphic"/>
            </feMerge>
        </filter>
        <path vector-effect="non-scaling-stroke" transform="translate(-158 -128)" d="M0 51v-1a50 50 0 0 1 98-13.8 125 125 0 0 1 204 135.2 49.8 49.8 0 0 1-36 84.6c-13.6 0-26-5.5-35-14.3A124.6 124.6 0 0 1 98.3 214 50 50 0 0 1 0 201z" stroke="#fff" stroke-width="5" fill="url(#e)" filter="url(#f)"/>
    </g>
    <g transform="matrix(1 0 0 .99863 194.5 132.5) matrix(1 0 0 1.0014 31.3 0)">
        <linearGradient id="g" gradientUnits="userSpaceOnUse" gradientTransform="translate(-102.3 -102.8)" x1="96.2" y1="0" x2="97.8" y2="205.5">
            <stop offset="0%" stop-color="#f7de59"/>
            <stop offset="100%" stop-color="#ffdb1e"/>
        </linearGradient>
        <filter id="h" y="-21.9%" height="143.9%" x="-22%" width="143.9%">
            <feGaussianBlur in="SourceAlpha" stdDeviation="1"/>
            <feOffset dx="2" dy="2" result="oBlur"/>
            <feFlood flood-color="#000" flood-opacity="1"/>
            <feComposite in2="oBlur" operator="in"/>
            <feMerge>
                <feMergeNode/>
                <feMergeNode in="SourceGraphic"/>
            </feMerge>
        </filter>
        <path vector-effect="non-scaling-stroke" d="m94.2 59.4.8.7a25 25 0 1 1-36.1 34.6l-11-11a100 100 0 1 1 35.6-35.1zM-62.3-1.8a60 60 0 1 0 120 0 60 60 0 0 0-120 0z" stroke="#2c6158" stroke-width="0" fill="url(#g)" filter="url(#h)"/>
    </g>
    <g transform="matrix(1 0 0 .99863 194.5 132.5) matrix(1 0 0 1.0014 -107 0)">
        <linearGradient id="i" gradientUnits="userSpaceOnUse" x1="25" y1="0" x2="25" y2="201">
            <stop offset="0%" stop-color="#f7de59"/>
            <stop offset="100%" stop-color="#ffdb1e"/>
        </linearGradient>
        <filter id="j" y="-22%" height="144%" x="-28%" width="156%">
            <feGaussianBlur in="SourceAlpha" stdDeviation="1"/>
            <feOffset dx="2" dy="2" result="oBlur"/>
            <feFlood flood-color="#000" flood-opacity="1"/>
            <feComposite in2="oBlur" operator="in"/>
            <feMerge>
                <feMergeNode/>
                <feMergeNode in="SourceGraphic"/>
            </feMerge>
        </filter>
        <path vector-effect="non-scaling-stroke" transform="translate(-25 -100.5)" d="M50 25v151a25 25 0 1 1-50-1V25a25 25 0 0 1 50 0z" stroke="#1a63b6" stroke-width="0" fill="url(#i)" filter="url(#j)"/>
    </g>
    <path vector-effect="non-scaling-stroke" d="M0 0h26.2-52.4H0z" stroke="#ad220b" stroke-width="0" fill="#558a71" transform="matrix(.954 0 0 .0001 185 3.436738893469733e+45)"/>
</svg>