<?xml version="1.0" encoding="UTF-8" standalone="no" ?>
<!DOCTYPE svg PUBLIC "-//W3C//DTD SVG 1.1//EN" "http://www.w3.org/Graphics/SVG/1.1/DTD/svg11.dtd">
<svg xmlns="http://www.w3.org/2000/svg" xmlns:xlink="http://www.w3.org/1999/xlink" version="1.1" width="423" height="370" viewBox="0 0 423 370" xml:space="preserve">
<desc>Created with Fabric.js 5.3.0</desc>
<defs>
</defs>
<g transform="matrix(6.2318264362 0 0 1.6717179143 202.1956897463 293.0199829431)" id="SYglyajBoyB_hHZNqnXwo"  >
<linearGradient id="SVGID_1" gradientUnits="userSpaceOnUse" gradientTransform="matrix(1 0 0 1 -31.6698981853 -39.25596823)"  x1="29.365389548966867" y1="-0.6028971871868265" x2="29.84678937763846" y2="77.17083995991531">
<stop offset="0%" style="stop-color:#F7DE57;stop-opacity: 1"/>
<stop offset="100%" style="stop-color:#FFDB20;stop-opacity: 1"/>
</linearGradient>
<filter id="SVGID_0" y="-25.094766710000002%" height="150.18953342%" x="-26.31514503%" width="152.63029006%" >
	<feGaussianBlur in="SourceAlpha" stdDeviation="1"></feGaussianBlur>
	<feOffset dx="2" dy="2" result="oBlur" ></feOffset>
	<feFlood flood-color="rgb(0,0,0)" flood-opacity="1"/>
	<feComposite in2="oBlur" operator="in" />
	<feMerge>
		<feMergeNode></feMergeNode>
		<feMergeNode in="SourceGraphic"></feMergeNode>
	</feMerge>
</filter>
<path style="stroke: rgb(255,255,255); stroke-width: 4; stroke-dasharray: none; stroke-linecap: butt; stroke-dashoffset: 0; stroke-linejoin: miter; stroke-miterlimit: 4; fill: url(#SVGID_1); fill-rule: nonzero; opacity: 1;filter: url(#SVGID_0);" vector-effect="non-scaling-stroke"  transform=" translate(0, 0)" d="M -29.52115 -24.9367 C -29.39688 -27.973789999999997 -28.713929999999998 -30.25961 -27.89058 -30.394199999999998 L 26.281080000000003 -39.24962 L 26.281080000000003 -39.24962 C 27.137400000000003 -39.3896 27.895070000000004 -37.19848 28.071550000000002 -34.071690000000004 L 31.620020000000004 28.79631 L 31.620020000000004 28.79631 C 31.766040000000004 31.38328 31.587600000000005 34.077259999999995 31.135360000000002 36.113569999999996 C 30.683120000000002 38.149879999999996 30.00645 39.306189999999994 29.297430000000002 39.25429999999999 L -29.873539999999995 34.92314999999999 L -29.873539999999995 34.92314999999999 C -30.401359999999993 34.884519999999995 -30.899059999999995 33.999089999999995 -31.239119999999996 32.493759999999995 C -31.579179999999997 30.988429999999994 -31.728539999999995 29.009479999999996 -31.648929999999996 27.063999999999993 z" stroke-linecap="round" />
</g>
<g transform="matrix(3.7529205607 0 0 2.6763990268 202.5 304)" id="lbgXUtHXoMizbxAW1na25"  >
<path style="stroke: rgb(255,255,255); stroke-width: 2; stroke-dasharray: none; stroke-linecap: butt; stroke-dashoffset: 0; stroke-linejoin: miter; stroke-miterlimit: 4; fill: none; fill-rule: nonzero; opacity: 1;" vector-effect="non-scaling-stroke"  transform=" translate(0, 0)" d="M -30.66 7.98 L -34.24 7.98 L -34.24 -8.219999999999999 L -28.8 -8.219999999999999 C -27.82667 -8.219999999999999 -27.02667 -8.036669999999999 -26.400000000000002 -7.669999999999999 C -25.77333 -7.303329999999999 -25.306670000000004 -6.769999999999999 -25.000000000000004 -6.0699999999999985 C -24.693330000000003 -5.369999999999998 -24.540000000000003 -4.519999999999999 -24.540000000000003 -3.5199999999999987 L -24.540000000000003 -3.5199999999999987 C -24.540000000000003 -2.2666699999999986 -24.74667 -1.3099999999999987 -25.160000000000004 -0.6499999999999986 C -25.573330000000002 0.010000000000001452 -26.133330000000004 0.4666700000000015 -26.840000000000003 0.7200000000000015 C -27.546670000000002 0.9733300000000016 -28.340000000000003 1.1000000000000014 -29.220000000000002 1.1000000000000014 L -29.220000000000002 1.1000000000000014 L -30.660000000000004 1.1000000000000014 z M -30.66 -5.7 L -30.66 -1.4000000000000004 L -29.46 -1.4000000000000004 C -29.02 -1.4000000000000004 -28.68667 -1.4800000000000004 -28.46 -1.6400000000000003 C -28.233330000000002 -1.8000000000000003 -28.08333 -2.0400000000000005 -28.01 -2.3600000000000003 C -27.936670000000003 -2.68 -27.900000000000002 -3.0866700000000002 -27.900000000000002 -3.58 L -27.900000000000002 -3.58 C -27.900000000000002 -3.9933300000000003 -27.930000000000003 -4.35667 -27.990000000000002 -4.67 C -28.05 -4.98333 -28.193330000000003 -5.23333 -28.42 -5.42 C -28.64667 -5.60667 -29 -5.7 -29.48 -5.7 L -29.48 -5.7 z M -18.08 8.22 L -18.08 8.22 C -19.319999999999997 8.22 -20.29 8.016670000000001 -20.99 7.61 C -21.689999999999998 7.20333 -22.18 6.61 -22.459999999999997 5.83 C -22.74 5.05 -22.88 4.09333 -22.88 2.96 L -22.88 2.96 L -22.88 -8.219999999999999 L -19.34 -8.219999999999999 L -19.34 3.5000000000000018 C -19.34 3.833330000000002 -19.31333 4.166670000000002 -19.26 4.500000000000002 C -19.206670000000003 4.833330000000002 -19.09 5.106670000000002 -18.91 5.320000000000002 C -18.73 5.533330000000002 -18.45333 5.640000000000002 -18.080000000000002 5.640000000000002 L -18.080000000000002 5.640000000000002 C -17.693330000000003 5.640000000000002 -17.413330000000002 5.533330000000002 -17.240000000000002 5.320000000000002 C -17.066670000000002 5.106670000000002 -16.956670000000003 4.833330000000002 -16.910000000000004 4.500000000000002 C -16.863330000000005 4.166670000000002 -16.840000000000003 3.833330000000002 -16.840000000000003 3.5000000000000018 L -16.840000000000003 3.5000000000000018 L -16.840000000000003 -8.219999999999999 L -13.280000000000003 -8.219999999999999 L -13.280000000000003 2.960000000000001 C -13.280000000000003 4.093330000000001 -13.423330000000004 5.050000000000001 -13.710000000000003 5.830000000000001 C -13.996670000000002 6.610000000000001 -14.486670000000002 7.203330000000001 -15.180000000000003 7.610000000000001 C -15.873330000000003 8.016670000000001 -16.840000000000003 8.22 -18.080000000000002 8.22 z M -4.04 7.98 L -11.559999999999999 7.98 L -11.559999999999999 5.82 L -7.599999999999999 -5.799999999999999 L -11.379999999999999 -5.799999999999999 L -11.379999999999999 -8.219999999999999 L -4.079999999999999 -8.219999999999999 L -4.079999999999999 -6.199999999999999 L -8.099999999999998 5.5600000000000005 L -4.039999999999998 5.5600000000000005 z M 4.68 7.98 L -2.84 7.98 L -2.84 5.82 L 1.12 -5.799999999999999 L -2.6599999999999997 -5.799999999999999 L -2.6599999999999997 -8.219999999999999 L 4.640000000000001 -8.219999999999999 L 4.640000000000001 -6.199999999999999 L 0.620000000000001 5.5600000000000005 L 4.680000000000001 5.5600000000000005 z M 13.7 7.98 L 6.3999999999999995 7.98 L 6.3999999999999995 -8.219999999999999 L 9.98 -8.219999999999999 L 9.98 5.5600000000000005 L 13.700000000000001 5.5600000000000005 z M 22.48 7.98 L 15.16 7.98 L 15.16 -8.219999999999999 L 22.44 -8.219999999999999 L 22.44 -5.779999999999999 L 18.740000000000002 -5.779999999999999 L 18.740000000000002 -1.7599999999999998 L 21.560000000000002 -1.7599999999999998 L 21.560000000000002 0.7200000000000002 L 18.740000000000002 0.7200000000000002 L 18.740000000000002 5.5600000000000005 L 22.480000000000004 5.5600000000000005 z M 27.74 7.98 L 24.159999999999997 7.98 L 24.159999999999997 -8.219999999999999 L 28.619999999999997 -8.219999999999999 C 29.71333 -8.219999999999999 30.659999999999997 -8.1 31.459999999999997 -7.8599999999999985 C 32.26 -7.619999999999998 32.88333 -7.189999999999999 33.33 -6.5699999999999985 C 33.776669999999996 -5.949999999999998 34 -5.073329999999999 34 -3.9399999999999986 L 34 -3.9399999999999986 C 34 -3.2733299999999987 33.94667 -2.679999999999999 33.84 -2.1599999999999984 C 33.73333 -1.6399999999999983 33.53667 -1.1899999999999984 33.25 -0.8099999999999983 C 32.96333 -0.4299999999999983 32.55333 -0.11332999999999827 32.02 0.14000000000000168 L 32.02 0.14000000000000168 L 34.24 7.980000000000001 L 30.540000000000003 7.980000000000001 L 28.76 0.7200000000000015 L 27.740000000000002 0.7200000000000015 z M 27.74 -5.82 L 27.74 -1.3399999999999999 L 28.74 -1.3399999999999999 C 29.246669999999998 -1.3399999999999999 29.639999999999997 -1.43 29.919999999999998 -1.6099999999999999 C 30.2 -1.7899999999999998 30.396669999999997 -2.05 30.509999999999998 -2.3899999999999997 C 30.62333 -2.7299999999999995 30.68 -3.1399999999999997 30.68 -3.6199999999999997 L 30.68 -3.6199999999999997 C 30.68 -4.31333 30.55333 -4.85333 30.3 -5.24 C 30.046670000000002 -5.62667 29.580000000000002 -5.82 28.900000000000002 -5.82 L 28.900000000000002 -5.82 z" stroke-linecap="round" />
</g>
<g transform="matrix(3.7529205607 0 0 2.6763990268 201.5 303)" id="0WmZrkpMG4DDgLqYwuq0y"  >
<linearGradient id="SVGID_1757" gradientUnits="userSpaceOnUse" gradientTransform="matrix(1 0 0 1 -34.24 -8.22)"  x1="34.239999999999995" y1="16.611249999999984" x2="34.239999999999995" y2="7.105427357601002e-15">
<stop offset="0%" style="stop-color:#3113A6;stop-opacity: 1"/>
<stop offset="100%" style="stop-color:#2E1398;stop-opacity: 1"/>
</linearGradient>
<filter id="SVGID_2" y="-32.16545012%" height="164.33090024%" x="-22.92056075%" width="145.84112149999999%" >
	<feGaussianBlur in="SourceAlpha" stdDeviation="0.5"></feGaussianBlur>
	<feOffset dx="1" dy="1" result="oBlur" ></feOffset>
	<feFlood flood-color="rgb(255,255,255)" flood-opacity="0.18"/>
	<feComposite in2="oBlur" operator="in" />
	<feMerge>
		<feMergeNode></feMergeNode>
		<feMergeNode in="SourceGraphic"></feMergeNode>
	</feMerge>
</filter>
<path style="stroke: rgb(255,255,255); stroke-width: 0; stroke-dasharray: none; stroke-linecap: butt; stroke-dashoffset: 0; stroke-linejoin: miter; stroke-miterlimit: 4; fill: url(#SVGID_1757); fill-rule: nonzero; opacity: 1;filter: url(#SVGID_2);" vector-effect="non-scaling-stroke"  transform=" translate(0, 0)" d="M -30.66 7.98 L -34.24 7.98 L -34.24 -8.219999999999999 L -28.8 -8.219999999999999 C -27.82667 -8.219999999999999 -27.02667 -8.036669999999999 -26.400000000000002 -7.669999999999999 C -25.77333 -7.303329999999999 -25.306670000000004 -6.769999999999999 -25.000000000000004 -6.0699999999999985 C -24.693330000000003 -5.369999999999998 -24.540000000000003 -4.519999999999999 -24.540000000000003 -3.5199999999999987 L -24.540000000000003 -3.5199999999999987 C -24.540000000000003 -2.2666699999999986 -24.74667 -1.3099999999999987 -25.160000000000004 -0.6499999999999986 C -25.573330000000002 0.010000000000001452 -26.133330000000004 0.4666700000000015 -26.840000000000003 0.7200000000000015 C -27.546670000000002 0.9733300000000016 -28.340000000000003 1.1000000000000014 -29.220000000000002 1.1000000000000014 L -29.220000000000002 1.1000000000000014 L -30.660000000000004 1.1000000000000014 z M -30.66 -5.7 L -30.66 -1.4000000000000004 L -29.46 -1.4000000000000004 C -29.02 -1.4000000000000004 -28.68667 -1.4800000000000004 -28.46 -1.6400000000000003 C -28.233330000000002 -1.8000000000000003 -28.08333 -2.0400000000000005 -28.01 -2.3600000000000003 C -27.936670000000003 -2.68 -27.900000000000002 -3.0866700000000002 -27.900000000000002 -3.58 L -27.900000000000002 -3.58 C -27.900000000000002 -3.9933300000000003 -27.930000000000003 -4.35667 -27.990000000000002 -4.67 C -28.05 -4.98333 -28.193330000000003 -5.23333 -28.42 -5.42 C -28.64667 -5.60667 -29 -5.7 -29.48 -5.7 L -29.48 -5.7 z M -18.08 8.22 L -18.08 8.22 C -19.319999999999997 8.22 -20.29 8.016670000000001 -20.99 7.61 C -21.689999999999998 7.20333 -22.18 6.61 -22.459999999999997 5.83 C -22.74 5.05 -22.88 4.09333 -22.88 2.96 L -22.88 2.96 L -22.88 -8.219999999999999 L -19.34 -8.219999999999999 L -19.34 3.5000000000000018 C -19.34 3.833330000000002 -19.31333 4.166670000000002 -19.26 4.500000000000002 C -19.206670000000003 4.833330000000002 -19.09 5.106670000000002 -18.91 5.320000000000002 C -18.73 5.533330000000002 -18.45333 5.640000000000002 -18.080000000000002 5.640000000000002 L -18.080000000000002 5.640000000000002 C -17.693330000000003 5.640000000000002 -17.413330000000002 5.533330000000002 -17.240000000000002 5.320000000000002 C -17.066670000000002 5.106670000000002 -16.956670000000003 4.833330000000002 -16.910000000000004 4.500000000000002 C -16.863330000000005 4.166670000000002 -16.840000000000003 3.833330000000002 -16.840000000000003 3.5000000000000018 L -16.840000000000003 3.5000000000000018 L -16.840000000000003 -8.219999999999999 L -13.280000000000003 -8.219999999999999 L -13.280000000000003 2.960000000000001 C -13.280000000000003 4.093330000000001 -13.423330000000004 5.050000000000001 -13.710000000000003 5.830000000000001 C -13.996670000000002 6.610000000000001 -14.486670000000002 7.203330000000001 -15.180000000000003 7.610000000000001 C -15.873330000000003 8.016670000000001 -16.840000000000003 8.22 -18.080000000000002 8.22 z M -4.04 7.98 L -11.559999999999999 7.98 L -11.559999999999999 5.82 L -7.599999999999999 -5.799999999999999 L -11.379999999999999 -5.799999999999999 L -11.379999999999999 -8.219999999999999 L -4.079999999999999 -8.219999999999999 L -4.079999999999999 -6.199999999999999 L -8.099999999999998 5.5600000000000005 L -4.039999999999998 5.5600000000000005 z M 4.68 7.98 L -2.84 7.98 L -2.84 5.82 L 1.12 -5.799999999999999 L -2.6599999999999997 -5.799999999999999 L -2.6599999999999997 -8.219999999999999 L 4.640000000000001 -8.219999999999999 L 4.640000000000001 -6.199999999999999 L 0.620000000000001 5.5600000000000005 L 4.680000000000001 5.5600000000000005 z M 13.7 7.98 L 6.3999999999999995 7.98 L 6.3999999999999995 -8.219999999999999 L 9.98 -8.219999999999999 L 9.98 5.5600000000000005 L 13.700000000000001 5.5600000000000005 z M 22.48 7.98 L 15.16 7.98 L 15.16 -8.219999999999999 L 22.44 -8.219999999999999 L 22.44 -5.779999999999999 L 18.740000000000002 -5.779999999999999 L 18.740000000000002 -1.7599999999999998 L 21.560000000000002 -1.7599999999999998 L 21.560000000000002 0.7200000000000002 L 18.740000000000002 0.7200000000000002 L 18.740000000000002 5.5600000000000005 L 22.480000000000004 5.5600000000000005 z M 27.74 7.98 L 24.159999999999997 7.98 L 24.159999999999997 -8.219999999999999 L 28.619999999999997 -8.219999999999999 C 29.71333 -8.219999999999999 30.659999999999997 -8.1 31.459999999999997 -7.8599999999999985 C 32.26 -7.619999999999998 32.88333 -7.189999999999999 33.33 -6.5699999999999985 C 33.776669999999996 -5.949999999999998 34 -5.073329999999999 34 -3.9399999999999986 L 34 -3.9399999999999986 C 34 -3.2733299999999987 33.94667 -2.679999999999999 33.84 -2.1599999999999984 C 33.73333 -1.6399999999999983 33.53667 -1.1899999999999984 33.25 -0.8099999999999983 C 32.96333 -0.4299999999999983 32.55333 -0.11332999999999827 32.02 0.14000000000000168 L 32.02 0.14000000000000168 L 34.24 7.980000000000001 L 30.540000000000003 7.980000000000001 L 28.76 0.7200000000000015 L 27.740000000000002 0.7200000000000015 z M 27.74 -5.82 L 27.74 -1.3399999999999999 L 28.74 -1.3399999999999999 C 29.246669999999998 -1.3399999999999999 29.639999999999997 -1.43 29.919999999999998 -1.6099999999999999 C 30.2 -1.7899999999999998 30.396669999999997 -2.05 30.509999999999998 -2.3899999999999997 C 30.62333 -2.7299999999999995 30.68 -3.1399999999999997 30.68 -3.6199999999999997 L 30.68 -3.6199999999999997 C 30.68 -4.31333 30.55333 -4.85333 30.3 -5.24 C 30.046670000000002 -5.62667 29.580000000000002 -5.82 28.900000000000002 -5.82 L 28.900000000000002 -5.82 z" stroke-linecap="round" />
</g>
<g transform="matrix(1 0 0 0.9986262072 194.5 132.5)" id="Joq4P78koVABpze87fhB8"  >
<g style="" vector-effect="non-scaling-stroke"   >
		<g transform="matrix(1 0 0 1.0014025124 0 0)" id="tfPnUV2rOOVezxEUiNgsg"  >
<linearGradient id="SVGID_5" gradientUnits="userSpaceOnUse" gradientTransform="matrix(1 0 0 1 0 0)"  x1="158" y1="-2.5" x2="158" y2="255.06767417293236">
<stop offset="0%" style="stop-color:#2A0BA1;stop-opacity: 1"/>
<stop offset="100%" style="stop-color:#221068;stop-opacity: 1"/>
</linearGradient>
<filter id="SVGID_4" y="-23.12499988%" height="146.24999976%" x="-22.531645570000002%" width="145.06329114%" >
	<feGaussianBlur in="SourceAlpha" stdDeviation="2"></feGaussianBlur>
	<feOffset dx="4" dy="4" result="oBlur" ></feOffset>
	<feFlood flood-color="rgb(0,0,0)" flood-opacity="1"/>
	<feComposite in2="oBlur" operator="in" />
	<feMerge>
		<feMergeNode></feMergeNode>
		<feMergeNode in="SourceGraphic"></feMergeNode>
	</feMerge>
</filter>
<path style="stroke: rgb(255,255,255); stroke-width: 5; stroke-dasharray: none; stroke-linecap: butt; stroke-dashoffset: 0; stroke-linejoin: miter; stroke-miterlimit: 4; fill: url(#SVGID_5); fill-rule: nonzero; opacity: 1;filter: url(#SVGID_4);" vector-effect="non-scaling-stroke"  transform=" translate(-158, -128.000005)" d="M 0 51 L 0.00982 51 C 0.0032900000000000004 50.66745 0 50.33411 0 50 C 0 22.4 22.4 0 50 0 C 72.80902 0 92.06665000000001 15.2983 98.06508 36.18709 C 120.65437 13.819489999999998 151.72314 0.000009999999996068709 186 0.000009999999996068709 C 255 0.000009999999996068709 311 56.000009999999996 311 125.00001 C 311 141.39539 307.83821 157.05678 302.09152 171.40730000000002 C 310.7049 180.39110000000002 316 192.58094000000003 316 206.00001000000003 C 316 233.60001000000003 293.6 256.00001000000003 266 256.00001000000003 C 252.3581 256.00001000000003 239.98658 250.52759000000003 230.96239 241.65969000000004 C 217.00787 247.04628000000005 201.84678 250.00002000000003 186 250.00002000000003 C 151.83341000000001 250.00002000000003 120.85431 236.26931000000005 98.28337 214.02855000000005 C 92.54659000000001 235.31763000000007 73.09357 251.00001000000006 50.00000000000001 251.00001000000006 C 22.400000000000006 251.00001000000006 7.105427357601002e-15 228.60001000000005 7.105427357601002e-15 201.00001000000006 C 7.105427357601002e-15 200.99603000000005 7.105427357601002e-15 200.99204000000006 7.105427357601002e-15 200.98806000000005 z" stroke-linecap="round" />
</g>
		<g transform="matrix(1 0 0 1.0014025124 31.27196905 0)" id="FDXJa6-py3D3_kqPtxAP4"  >
<linearGradient id="SVGID_7" gradientUnits="userSpaceOnUse" gradientTransform="matrix(1 0 0 1 -102.27198 -102.77197)"  x1="96.24060150375945" y1="0" x2="97.7770352067669" y2="205.54393249999998">
<stop offset="0%" style="stop-color:#F7DE59;stop-opacity: 1"/>
<stop offset="100%" style="stop-color:#FFDB1E;stop-opacity: 1"/>
</linearGradient>
<filter id="SVGID_6" y="-21.94605598%" height="143.89211196%" x="-21.95556992%" width="143.91113984%" >
	<feGaussianBlur in="SourceAlpha" stdDeviation="1"></feGaussianBlur>
	<feOffset dx="2" dy="2" result="oBlur" ></feOffset>
	<feFlood flood-color="rgb(0,0,0)" flood-opacity="1"/>
	<feComposite in2="oBlur" operator="in" />
	<feMerge>
		<feMergeNode></feMergeNode>
		<feMergeNode in="SourceGraphic"></feMergeNode>
	</feMerge>
</filter>
<path style="stroke: rgb(44,97,88); stroke-width: 0; stroke-dasharray: none; stroke-linecap: butt; stroke-dashoffset: 0; stroke-linejoin: miter; stroke-miterlimit: 4; fill: url(#SVGID_7); fill-rule: nonzero; opacity: 1;filter: url(#SVGID_6);" vector-effect="non-scaling-stroke"  transform=" translate(0.00000375, 0.00000375)" d="M 94.24632 59.39096 L 94.23241 59.40487 C 94.47621 59.630190000000006 94.71661 59.86126 94.95342000000001 60.09807 C 104.71149000000001 69.85614 104.71149000000001 85.69534 94.95342000000001 95.45340999999999 C 85.19535 105.21148 69.35615000000001 105.21148 59.59808000000001 95.45340999999999 C 59.36127000000001 95.21659999999999 59.13020000000001 94.97619999999999 58.90488000000001 94.73239999999998 L 58.89097000000001 94.74630999999998 L 47.88807000000001 83.74340999999998 C 33.14048000000001 92.31696999999998 16.00429000000001 97.22802999999999 -2.271979999999985 97.22802999999999 C -57.47197999999999 97.22802999999999 -102.27197999999999 52.42802999999999 -102.27197999999999 -2.7719700000000103 C -102.27197999999999 -57.97197000000001 -57.47197999999999 -102.77197000000001 -2.271979999999985 -102.77197000000001 C 52.92802000000002 -102.77197000000001 97.72802000000001 -57.97197000000001 97.72802000000001 -2.7719700000000103 C 97.72802000000001 16.02594999999999 92.53262000000001 33.61777999999999 83.50034000000002 48.64501999999999 z M -62.27197 -1.77199 C -62.27197 31.34801 -35.39197 58.22801 -2.271970000000003 58.22801 C 30.848029999999994 58.22801 57.72803 31.34801 57.72803 -1.7719900000000024 C 57.72803 -34.89199 30.848029999999998 -61.77199 -2.271970000000003 -61.77199 C -35.39197 -61.77199 -62.27197 -34.89199000000001 -62.27197 -1.7719900000000024 z" stroke-linecap="round" />
</g>
		<g transform="matrix(1 0 0 1.0014025124 -106.99999965 0)" id="LhUAH0WWmBDlX3cRALeUh"  >
<linearGradient id="SVGID_9" gradientUnits="userSpaceOnUse" gradientTransform="matrix(1 0 0 1 0 -0.00001)"  x1="25" y1="1.4210854715202004e-14" x2="25" y2="201.00000999999997">
<stop offset="0%" style="stop-color:#F7DE59;stop-opacity: 1"/>
<stop offset="100%" style="stop-color:#FFDB1E;stop-opacity: 1"/>
</linearGradient>
<filter id="SVGID_8" y="-21.99004965%" height="143.9800993%" x="-28%" width="156%" >
	<feGaussianBlur in="SourceAlpha" stdDeviation="1"></feGaussianBlur>
	<feOffset dx="2" dy="2" result="oBlur" ></feOffset>
	<feFlood flood-color="rgb(0,0,0)" flood-opacity="1"/>
	<feComposite in2="oBlur" operator="in" />
	<feMerge>
		<feMergeNode></feMergeNode>
		<feMergeNode in="SourceGraphic"></feMergeNode>
	</feMerge>
</filter>
<path style="stroke: rgb(26,99,182); stroke-width: 0; stroke-dasharray: none; stroke-linecap: butt; stroke-dashoffset: 0; stroke-linejoin: miter; stroke-miterlimit: 4; fill: url(#SVGID_9); fill-rule: nonzero; opacity: 1;filter: url(#SVGID_8);" vector-effect="non-scaling-stroke"  transform=" translate(-25, -100.499995)" d="M 50 25 L 50 175 L 49.98033 175 C 49.9934 175.33172 50 175.66509 50 176 C 50 189.8 38.8 201 25 201 C 11.2 201 0 189.8 0 176 C 0 175.66509 0.0066 175.33172 0.01967 175 L 0 175 L 0 25.00596999999999 C 0 25.00397999999999 0 25.001989999999992 0 24.99998999999999 C 0 11.199989999999989 11.2 -0.000010000000010279564 25 -0.000010000000010279564 C 38.8 -0.000010000000010279564 50 11.199989999999989 50 24.99998999999999 C 50 24.99998999999999 50 24.99998999999999 50 24.99998999999999 z" stroke-linecap="round" />
</g>
</g>
</g>
<g transform="matrix(0.9540000267 0 0 0.0001 185 3.436738893469733e+45)" id="EwgyjL48cuJE6fpKVQipB"  >
<path style="stroke: rgb(173,34,11); stroke-width: 0; stroke-dasharray: none; stroke-linecap: butt; stroke-dashoffset: 0; stroke-linejoin: miter; stroke-miterlimit: 4; fill: rgb(85,138,113); fill-rule: nonzero; opacity: 1;" vector-effect="non-scaling-stroke"  transform=" translate(0, 0)" d="M 0 0 C 14.46541 0 26.20545 0 26.20545 0 C 26.20545 0 14.465409999999999 0 0 0 C -14.46541 0 -26.20545 0 -26.20545 0 C -26.20545 0 -14.465409999999999 0 0 0 z" stroke-linecap="round" />
</g>
</svg>