<?xml version="1.0" encoding="UTF-8" standalone="no" ?>
<!DOCTYPE svg PUBLIC "-//W3C//DTD SVG 1.1//EN" "http://www.w3.org/Graphics/SVG/1.1/DTD/svg11.dtd">
<svg xmlns="http://www.w3.org/2000/svg" xmlns:xlink="http://www.w3.org/1999/xlink" version="1.1" width="191.99998" height="256" viewBox="150.6666782667 61.333330133299995 191.99998 256" xml:space="preserve">

<g transform="matrix(1 0 0 1 246.6666682667 189.3333301333)" id="xAMjoHDD_Bcjtcxe4cW5J"  >
<path style="stroke: rgb(192,230,7); stroke-width: 0; stroke-dasharray: none; stroke-linecap: butt; stroke-dashoffset: 0; stroke-linejoin: miter; stroke-miterlimit: 4; fill: rgb(247,47,58); fill-rule: nonzero; opacity: 1;" vector-effect="non-scaling-stroke"  transform=" translate(-96, -128)" d="M 96 0 C 113.664 0 128 14.336 128 32 C 128 49.65918 113.67182 63.992180000000005 96.01445 64 C 113.66841 64.00782 127.99446 78.33529 127.99999 95.98978 C 128.00552 78.33046999999999 142.3394 64 159.99999 64 C 177.66399 64 191.99999 78.336 191.99999 96 C 191.99999 113.664 177.66398999999998 128 159.99999 128 C 142.3394 128 128.00552 113.66953 127.99999 96.01022 C 127.99446 113.66471 113.66839999999999 127.99218 96.01445 128 C 113.67182 128.00782 128 142.34082 128 160 C 128 177.65918 113.67182 191.99218 96.01445 192 C 113.67182 192.00782 128 206.34082 128 224 C 128 241.664 113.664 256 96 256 C 78.336 256 64 241.664 64 224 C 64 206.34082 78.32818 192.00782 95.98555 192 C 78.32818 191.99218 64 177.65918 64 160 C 64 142.34082 78.32818 128.00782 95.98555 128 C 78.333 127.99218 64.00782000000001 113.66701 64.00001 96.01446 C 63.99219 113.67183 49.65919 128.00001 32.00001 128.00001 C 14.336010000000002 128.00001 0.000010000000003174137 113.66401 0.000010000000003174137 96.00001 C 0.000010000000003174137 78.33601 14.336010000000003 64.00001 32.00001 64.00001 C 49.65919 64.00001 63.99219000000001 78.32819 64.00001 95.98556 C 64.00783 78.33301 78.33301 64.00783000000001 95.98555 64.00002 C 78.32819 63.992200000000004 64.00001 49.659200000000006 64.00001 32.000020000000006 C 64.00001 14.336020000000005 78.33601 0.000020000000006348273 96.00001 0.000020000000006348273 z" stroke-linecap="round" />
</g>
</svg>