<?xml version="1.0" encoding="UTF-8" standalone="no" ?>
<!DOCTYPE svg PUBLIC "-//W3C//DTD SVG 1.1//EN" "http://www.w3.org/Graphics/SVG/1.1/DTD/svg11.dtd">
<svg xmlns="http://www.w3.org/2000/svg"
    xmlns:xlink="http://www.w3.org/1999/xlink" version="1.1" width="207.99997919999998" height="279.9999792" viewBox="132.66667546669999 43.33333653330001 207.99997919999998 279.9999792" xml:space="preserve">
    <desc>Created with Fabric.js 5.3.0</desc>
    <defs>
    </defs>
    <g transform="matrix(0.96 0 0 0.96 236.6666666667 75.3333333333)" id="4_iwDj6_ih0sy1EwvcAEM">
        <path style="stroke: rgb(192,230,7); stroke-width: 0; stroke-dasharray: none; stroke-linecap: butt; stroke-dashoffset: 0; stroke-linejoin: miter; stroke-miterlimit: 4; fill: rgb(247,47,58); fill-rule: nonzero; opacity: 1;" vector-effect="non-scaling-stroke" transform=" translate(0, 0)" d="M 0 -33.33333 C 18.4 -33.33333 33.33333 -18.4 33.33333 0 C 33.33333 18.4 18.4 33.33333 0 33.33333 C -18.4 33.33333 -33.33333 18.4 -33.33333 0 C -33.33333 -18.4 -18.4 -33.33333 0 -33.33333 z" stroke-linecap="round" />
    </g>
    <g transform="matrix(0.96 0 0 0.96 236.6666634667 147.3333301333)" id="KHWrUciU1CbvTu6xnh0zY">
        <path style="stroke: rgb(192,230,7); stroke-width: 0; stroke-dasharray: none; stroke-linecap: butt; stroke-dashoffset: 0; stroke-linejoin: miter; stroke-miterlimit: 4; fill: rgb(247,47,58); fill-rule: nonzero; opacity: 1;" vector-effect="non-scaling-stroke" transform=" translate(0, 0)" d="M 0 -33.33333 C 18.4 -33.33333 33.33333 -18.4 33.33333 0 C 33.33333 18.4 18.4 33.33333 0 33.33333 C -18.4 33.33333 -33.33333 18.4 -33.33333 0 C -33.33333 -18.4 -18.4 -33.33333 0 -33.33333 z" stroke-linecap="round" />
    </g>
    <g transform="matrix(0.96 0 0 0.96 308.6666578667 147.3333301333)" id="ED5FN9XYRdskktXgkNH_2">
        <path style="stroke: rgb(192,230,7); stroke-width: 0; stroke-dasharray: none; stroke-linecap: butt; stroke-dashoffset: 0; stroke-linejoin: miter; stroke-miterlimit: 4; fill: rgb(247,47,58); fill-rule: nonzero; opacity: 1;" vector-effect="non-scaling-stroke" transform=" translate(0, 0)" d="M 0 -33.33333 C 18.4 -33.33333 33.33333 -18.4 33.33333 0 C 33.33333 18.4 18.4 33.33333 0 33.33333 C -18.4 33.33333 -33.33333 18.4 -33.33333 0 C -33.33333 -18.4 -18.4 -33.33333 0 -33.33333 z" stroke-linecap="round" />
    </g>
    <g transform="matrix(0.24 0 0 0.24 236.6666666667 111.3333333333)" id="1htGwsh4ylc72A3DIqm-K">
        <path style="stroke: rgb(126,138,64); stroke-width: 0; stroke-dasharray: none; stroke-linecap: butt; stroke-dashoffset: 0; stroke-linejoin: miter; stroke-miterlimit: 4; fill: rgb(247,47,58); fill-rule: nonzero; opacity: 1;" vector-effect="non-scaling-stroke" transform=" translate(-0.000005, -0.000005)" d="M -33.33333 -33.33333 L 33.33334 -33.33333 L 33.33334 33.33334 L -33.33333 33.33334 z" stroke-linecap="round" />
    </g>
    <g transform="matrix(0.24 0 0 0.24 236.6666634667 183.3333273333)" id="zG-UnfESlrfcXQvmwbsbc">
        <path style="stroke: rgb(126,138,64); stroke-width: 0; stroke-dasharray: none; stroke-linecap: butt; stroke-dashoffset: 0; stroke-linejoin: miter; stroke-miterlimit: 4; fill: rgb(247,47,58); fill-rule: nonzero; opacity: 1;" vector-effect="non-scaling-stroke" transform=" translate(-0.000005, -0.000005)" d="M -33.33333 -33.33333 L 33.33334 -33.33333 L 33.33334 33.33334 L -33.33333 33.33334 z" stroke-linecap="round" />
    </g>
    <g transform="matrix(0.24 0 0 0.24 236.6666634667 255.3333217333)" id="UxGD8c0qj88QG7q9xFblv">
        <path style="stroke: rgb(126,138,64); stroke-width: 0; stroke-dasharray: none; stroke-linecap: butt; stroke-dashoffset: 0; stroke-linejoin: miter; stroke-miterlimit: 4; fill: rgb(247,47,58); fill-rule: nonzero; opacity: 1;" vector-effect="non-scaling-stroke" transform=" translate(-0.000005, -0.000005)" d="M -33.33333 -33.33333 L 33.33334 -33.33333 L 33.33334 33.33334 L -33.33333 33.33334 z" stroke-linecap="round" />
    </g>
    <g transform="matrix(0.24 0 0 0.24 272.6666606667 147.3333301333)" id="Bamez6OLqbyecq74mVC5x">
        <path style="stroke: rgb(126,138,64); stroke-width: 0; stroke-dasharray: none; stroke-linecap: butt; stroke-dashoffset: 0; stroke-linejoin: miter; stroke-miterlimit: 4; fill: rgb(247,47,58); fill-rule: nonzero; opacity: 1;" vector-effect="non-scaling-stroke" transform=" translate(-0.000005, -0.000005)" d="M -33.33333 -33.33333 L 33.33334 -33.33333 L 33.33334 33.33334 L -33.33333 33.33334 z" stroke-linecap="round" />
    </g>
    <g transform="matrix(0.24 0 0 0.24 200.6666694667 147.3333301333)" id="VDVmD6PAFLKOUtRwu4yfX">
        <path style="stroke: rgb(126,138,64); stroke-width: 0; stroke-dasharray: none; stroke-linecap: butt; stroke-dashoffset: 0; stroke-linejoin: miter; stroke-miterlimit: 4; fill: rgb(247,47,58); fill-rule: nonzero; opacity: 1;" vector-effect="non-scaling-stroke" transform=" translate(-0.000005, -0.000005)" d="M -33.33333 -33.33333 L 33.33334 -33.33333 L 33.33334 33.33334 L -33.33333 33.33334 z" stroke-linecap="round" />
    </g>
    <g transform="matrix(0.96 0 0 0.96 164.6666722667 147.3333301333)" id="NSmN0_FA8leY6RvP4CKfE">
        <path style="stroke: rgb(192,230,7); stroke-width: 0; stroke-dasharray: none; stroke-linecap: butt; stroke-dashoffset: 0; stroke-linejoin: miter; stroke-miterlimit: 4; fill: rgb(247,47,58); fill-rule: nonzero; opacity: 1;" vector-effect="non-scaling-stroke" transform=" translate(0, 0)" d="M 0 -33.33333 C 18.4 -33.33333 33.33333 -18.4 33.33333 0 C 33.33333 18.4 18.4 33.33333 0 33.33333 C -18.4 33.33333 -33.33333 18.4 -33.33333 0 C -33.33333 -18.4 -18.4 -33.33333 0 -33.33333 z" stroke-linecap="round" />
    </g>
    <g transform="matrix(0.96 0 0 0.96 236.6666634667 219.3333245333)" id="daURzqSxPfQGZPgm8IdcE">
        <path style="stroke: rgb(192,230,7); stroke-width: 0; stroke-dasharray: none; stroke-linecap: butt; stroke-dashoffset: 0; stroke-linejoin: miter; stroke-miterlimit: 4; fill: rgb(247,47,58); fill-rule: nonzero; opacity: 1;" vector-effect="non-scaling-stroke" transform=" translate(0, 0)" d="M 0 -33.33333 C 18.4 -33.33333 33.33333 -18.4 33.33333 0 C 33.33333 18.4 18.4 33.33333 0 33.33333 C -18.4 33.33333 -33.33333 18.4 -33.33333 0 C -33.33333 -18.4 -18.4 -33.33333 0 -33.33333 z" stroke-linecap="round" />
    </g>
    <g transform="matrix(0.96 0 0 0.96 236.6666666667 291.3333189333)" id="c6TtnKAIDRdPfR-jhvkS0">
        <path style="stroke: rgb(192,230,7); stroke-width: 0; stroke-dasharray: none; stroke-linecap: butt; stroke-dashoffset: 0; stroke-linejoin: miter; stroke-miterlimit: 4; fill: rgb(247,47,58); fill-rule: nonzero; opacity: 1;" vector-effect="non-scaling-stroke" transform=" translate(0, 0)" d="M 0 -33.33333 C 18.4 -33.33333 33.33333 -18.4 33.33333 0 C 33.33333 18.4 18.4 33.33333 0 33.33333 C -18.4 33.33333 -33.33333 18.4 -33.33333 0 C -33.33333 -18.4 -18.4 -33.33333 0 -33.33333 z" stroke-linecap="round" />
    </g>
</svg>