<?xml version="1.0" encoding="UTF-8" standalone="no" ?>
<!DOCTYPE svg PUBLIC "-//W3C//DTD SVG 1.1//EN" "http://www.w3.org/Graphics/SVG/1.1/DTD/svg11.dtd">
<svg xmlns="http://www.w3.org/2000/svg"
	xmlns:xlink="http://www.w3.org/1999/xlink" version="1.1" width="16" height="13" viewBox="196.5 136 16 13" xml:space="preserve">
	<desc>Created with Fabric.js 5.3.0</desc>
	<defs>
	</defs>
	<g transform="matrix(1 0 0 1 204.5 142.5)" id="LQN7Zu5YD3BkjBveDGqSN">
		<g style="">
			<g transform="matrix(0.0506329114 0 0 0.050781248 0 0)" id="GuIA2PgUoWpqS2pj7ZDUN">
				<linearGradient id="SVGID_27" gradientUnits="userSpaceOnUse" gradientTransform="matrix(1 0 0 1 0 0)" x1="158" y1="-2.5" x2="158" y2="255.06767417293236">
					<stop offset="0%" style="stop-color:#2A0BA1;stop-opacity: 1"/>
					<stop offset="100%" style="stop-color:#221068;stop-opacity: 1"/>
				</linearGradient>
				<path style="stroke: rgb(255,255,255); stroke-width: 0; stroke-dasharray: none; stroke-linecap: butt; stroke-dashoffset: 0; stroke-linejoin: miter; stroke-miterlimit: 4; fill: url(#SVGID_27); fill-rule: nonzero; opacity: 1;" vector-effect="non-scaling-stroke" transform=" translate(-158, -128.000005)" d="M 0 51 L 0.00982 51 C 0.0032900000000000004 50.66745 0 50.33411 0 50 C 0 22.4 22.4 0 50 0 C 72.80902 0 92.06665000000001 15.2983 98.06508 36.18709 C 120.65437 13.819489999999998 151.72314 0.000009999999996068709 186 0.000009999999996068709 C 255 0.000009999999996068709 311 56.000009999999996 311 125.00001 C 311 141.39539 307.83821 157.05678 302.09152 171.40730000000002 C 310.7049 180.39110000000002 316 192.58094000000003 316 206.00001000000003 C 316 233.60001000000003 293.6 256.00001000000003 266 256.00001000000003 C 252.3581 256.00001000000003 239.98658 250.52759000000003 230.96239 241.65969000000004 C 217.00787 247.04628000000005 201.84678 250.00002000000003 186 250.00002000000003 C 151.83341000000001 250.00002000000003 120.85431 236.26931000000005 98.28337 214.02855000000005 C 92.54659000000001 235.31763000000007 73.09357 251.00001000000006 50.00000000000001 251.00001000000006 C 22.400000000000006 251.00001000000006 7.105427357601002e-15 228.60001000000005 7.105427357601002e-15 201.00001000000006 C 7.105427357601002e-15 200.99603000000005 7.105427357601002e-15 200.99204000000006 7.105427357601002e-15 200.98806000000005 z" stroke-linecap="round" />
			</g>
			<g transform="matrix(0.0506329114 0 0 0.050781248 1.583390838 0)" id="x-vVtpjWOkb93XoxMS5g9">
				<linearGradient id="SVGID_29" gradientUnits="userSpaceOnUse" gradientTransform="matrix(1 0 0 1 -102.27198 -102.77197)" x1="96.24060150375945" y1="0" x2="97.7770352067669" y2="205.54393249999998">
					<stop offset="0%" style="stop-color:#F7DE59;stop-opacity: 1"/>
					<stop offset="100%" style="stop-color:#FFDB1E;stop-opacity: 1"/>
				</linearGradient>
				<path style="stroke: rgb(44,97,88); stroke-width: 0; stroke-dasharray: none; stroke-linecap: butt; stroke-dashoffset: 0; stroke-linejoin: miter; stroke-miterlimit: 4; fill: url(#SVGID_29); fill-rule: nonzero; opacity: 1;" vector-effect="non-scaling-stroke" transform=" translate(0.00000375, 0.00000375)" d="M 94.24632 59.39096 L 94.23241 59.40487 C 94.47621 59.630190000000006 94.71661 59.86126 94.95342000000001 60.09807 C 104.71149000000001 69.85614 104.71149000000001 85.69534 94.95342000000001 95.45340999999999 C 85.19535 105.21148 69.35615000000001 105.21148 59.59808000000001 95.45340999999999 C 59.36127000000001 95.21659999999999 59.13020000000001 94.97619999999999 58.90488000000001 94.73239999999998 L 58.89097000000001 94.74630999999998 L 47.88807000000001 83.74340999999998 C 33.14048000000001 92.31696999999998 16.00429000000001 97.22802999999999 -2.271979999999985 97.22802999999999 C -57.47197999999999 97.22802999999999 -102.27197999999999 52.42802999999999 -102.27197999999999 -2.7719700000000103 C -102.27197999999999 -57.97197000000001 -57.47197999999999 -102.77197000000001 -2.271979999999985 -102.77197000000001 C 52.92802000000002 -102.77197000000001 97.72802000000001 -57.97197000000001 97.72802000000001 -2.7719700000000103 C 97.72802000000001 16.02594999999999 92.53262000000001 33.61777999999999 83.50034000000002 48.64501999999999 z M -62.27197 -1.77199 C -62.27197 31.34801 -35.39197 58.22801 -2.271970000000003 58.22801 C 30.848029999999994 58.22801 57.72803 31.34801 57.72803 -1.7719900000000024 C 57.72803 -34.89199 30.848029999999998 -61.77199 -2.271970000000003 -61.77199 C -35.39197 -61.77199 -62.27197 -34.89199000000001 -62.27197 -1.7719900000000024 z" stroke-linecap="round" />
			</g>
			<g transform="matrix(0.0506329114 0 0 0.050781248 -5.4177215013 0)" id="LGdtVFb2JTT8fdlBzU57G">
				<linearGradient id="SVGID_31" gradientUnits="userSpaceOnUse" gradientTransform="matrix(1 0 0 1 0 -0.00001)" x1="25" y1="1.4210854715202004e-14" x2="25" y2="201.00000999999997">
					<stop offset="0%" style="stop-color:#F7DE59;stop-opacity: 1"/>
					<stop offset="100%" style="stop-color:#FFDB1E;stop-opacity: 1"/>
				</linearGradient>
				<path style="stroke: rgb(26,99,182); stroke-width: 0; stroke-dasharray: none; stroke-linecap: butt; stroke-dashoffset: 0; stroke-linejoin: miter; stroke-miterlimit: 4; fill: url(#SVGID_31); fill-rule: nonzero; opacity: 1;" vector-effect="non-scaling-stroke" transform=" translate(-25, -100.499995)" d="M 50 25 L 50 175 L 49.98033 175 C 49.9934 175.33172 50 175.66509 50 176 C 50 189.8 38.8 201 25 201 C 11.2 201 0 189.8 0 176 C 0 175.66509 0.0066 175.33172 0.01967 175 L 0 175 L 0 25.00596999999999 C 0 25.00397999999999 0 25.001989999999992 0 24.99998999999999 C 0 11.199989999999989 11.2 -0.000010000000010279564 25 -0.000010000000010279564 C 38.8 -0.000010000000010279564 50 11.199989999999989 50 24.99998999999999 C 50 24.99998999999999 50 24.99998999999999 50 24.99998999999999 z" stroke-linecap="round" />
			</g>
		</g>
	</g>
</svg>