<svg xmlns="http://www.w3.org/2000/svg" viewBox="233.2 138.3 66.8 72.4" xml:space="preserve"><path vector-effect="non-scaling-stroke" d="M-33-20.5a5 5 0 0 1 10 0v40a5 5 0 0 1-10 0zm58 45-3.8-3.8A24.9 24.9 0 0 1 7 24.5a25 25 0 1 1 1-50 25 25 0 0 1 20.5 39.4l3.5 3.5a5 5 0 0 1-7 7v.1zm-3-25a15 15 0 0 0-14.5-15 15 15 0 0 0 0 30A15 15 0 0 0 22-.5z" stroke="#8937d4" stroke-width="0" transform="translate(266.7 163.8)"/><path vector-effect="non-scaling-stroke" d="M-30.7 8h-3.5V-8.2h5.4q1.5 0 2.4.5 1 .6 1.4 1.6.5 1 .5 2.6 0 1.9-.7 2.8-.6 1-1.6 1.4-1.1.4-2.4.4h-1.5V8Zm0-13.7v4.3h1.2q.7 0 1-.2.4-.3.5-.8l.1-1.2v-1l-.5-.8q-.4-.3-1-.3h-1.3Zm12.6 14q-1.8 0-2.9-.7-1-.6-1.5-1.8-.4-1.1-.4-2.8V-8.2h3.6V4.5q.1.5.4.8.3.3.8.3.6 0 .9-.3l.3-.8V-8.2h3.6V3q0 1.7-.4 2.8-.4 1.2-1.5 1.8-1 .6-2.9.6ZM-4 8h-7.5V5.8l4-11.6h-3.8v-2.4H-4v2L-8 5.6h4V8Zm8.8 0h-7.5V5.8l4-11.6h-3.9v-2.4h7.3v2L.6 5.6h4V8Zm9 0H6.4V-8.2H10V5.6h3.7V8Zm8.8 0h-7.3V-8.2h7.2v2.4h-3.7v4h2.9V.7h-2.9v4.9h3.8V8Zm5.2 0h-3.5V-8.2h4.4q1.7 0 2.9.3 1.2.4 1.8 1.3.7 1 .7 2.7 0 1-.2 1.7-.1.8-.5 1.4-.5.6-1.3 1L34.2 8h-3.7L28.8.7h-1V8Zm0-13.8v4.5h1q.8 0 1.2-.3.4-.3.6-.8.2-.5.2-1.2 0-1-.4-1.6-.4-.6-1.4-.6h-1.2Z" transform="matrix(.96159 0 0 .96159 266.6 202.4)"/></svg>