<?xml version="1.0" encoding="UTF-8"?>
<!DOCTYPE svg  PUBLIC '-//W3C//DTD SVG 1.1//EN'  'http://www.w3.org/Graphics/SVG/1.1/DTD/svg11.dtd'>
<svg width="100" height="96.222" version="1.1" viewBox="2423.8 753.1 536.49 516.23" xml:space="preserve" xmlns="http://www.w3.org/2000/svg">
<desc>Created with Fabric.js 5.3.0</desc>

<g transform="translate(2692.1 1011.2)">
<g vector-effect="non-scaling-stroke" style="">
		<g transform="scale(.13333 -.13333)" clip-path="url(#h)">
<linearGradient id="d" x2="1" gradientTransform="matrix(-386.21 4666.7 4666.7 386.21 12266 10665)" gradientUnits="userSpaceOnUse">
<stop stop-color="#fac609" offset="0"/>
<stop stop-color="#f9b00b" offset=".27095"/>
<stop stop-color="#f4ea07" offset=".75698"/>
<stop stop-color="#f4ea07" offset="1"/>
</linearGradient>
<clipPath id="h">
	<path transform="matrix(1 0 0 1 0 0) translate(-12008 -13424)" d="m12969 11492c-69.8 0-141.8 16.7-211.3 53.2l-537.8 282.8c-66.1 34.7-138.7 52.1-211.2 52.1-72.6 0-145.1-17.4-211.3-52.1l-537.8-282.8c-69.5-36.5-141.5-53.1-211.3-53.2-264.5 0-497.6 238.3-447.3 531.7l102.8 598.9c25.2 147.2-23.6 297.4-130.6 401.7l-435.1 424.1c-269.37 262.6-120.7 720.1 251.6 774.2l601.3 87.4c147.8 21.5 275.6 114.3 341.7 248.3l144.7 293.2 124.2 251.7c83.3 168.7 245.2 253 407.1 253 161.8 0 323.7-84.3 407-253l124.2-251.7 144.7-293.2c66.1-134 193.9-226.8 341.7-248.3l601.3-87.4c372.3-54.1 521-511.6 251.6-774.2l-435.1-424.1c-107-104.3-155.8-254.5-130.6-401.7l102.8-598.9c50.3-293.4-182.8-531.7-447.3-531.7m-960.4 544.7c62.7 0 125.4-15 182.5-45l525.5-276.3c60.1-31.6 122.3-45.9 182.6-45.9 114.5 0 222.2 51.7 295.7 135.1 0.6-0.4 1.3-0.8 2-1.2 39.4 46 68.4 100.5 82.7 160.7 13.1 51.2 16 106.7 6 164.7l-100.3 585.2c-8.8 51-7.2 102.5 3.7 151.7 4.3 17.1 9.8 34 16.4 50.5l-1.9-1.3c19.8 54.4 51.8 104.6 94.6 146.2l425.1 414.4c232.8 226.9 104.3 622.2-217.3 669l-587.6 85.3c-127.7 18.6-238.1 98.8-295.3 214.6l-262.7 532.4c-71.8 145.5-211.3 218.1-350.8 218.1-75.3 0-150.5-21.1-215.3-63.2v0c-55.7-36.3-104-87.4-137.3-154.9l-262.7-532.4c-57.1-115.8-167.6-196-295.3-214.5l-587.5-85.4c-142.7-20.8-247.2-110-299.2-222.8v0c-65.3-141.5-47.8-319.9 81.8-446.2l167-162.8-57.5 28.2 288.2-259.1c96-86.3 143.4-214.3 126.8-342.3l-56.2-431.7-30.7-179c-43.5-253.4 157.9-459.3 386.4-459.3 60.3 0 122.5 14.3 182.6 45.9l525.5 276.3c57.1 30 119.8 45 182.5 45m-664.3 1841.1-10.2 0.4h1.6 3.9c1.3 0.1 2.5 0.1 3.8 0.1h0.9v-0.5m414.1 331.1h-5.6c4.2 21 7.2 42.4 8.1 64.4l33.3 858.4v0l-35.8-922.8" stroke-linecap="round"/>
</clipPath>
<path transform="translate(-12008 -13424)" d="m12969 11492c-69.8 0-141.8 16.7-211.3 53.2l-537.8 282.8c-66.1 34.7-138.7 52.1-211.2 52.1-72.6 0-145.1-17.4-211.3-52.1l-537.8-282.8c-69.5-36.5-141.5-53.1-211.3-53.2-264.5 0-497.6 238.3-447.3 531.7l102.8 598.9c25.2 147.2-23.6 297.4-130.6 401.7l-435.1 424.1c-269.37 262.6-120.7 720.1 251.6 774.2l601.3 87.4c147.8 21.5 275.6 114.3 341.7 248.3l144.7 293.2 124.2 251.7c83.3 168.7 245.2 253 407.1 253 161.8 0 323.7-84.3 407-253l124.2-251.7 144.7-293.2c66.1-134 193.9-226.8 341.7-248.3l601.3-87.4c372.3-54.1 521-511.6 251.6-774.2l-435.1-424.1c-107-104.3-155.8-254.5-130.6-401.7l102.8-598.9c50.3-293.4-182.8-531.7-447.3-531.7m-960.4 544.7c62.7 0 125.4-15 182.5-45l525.5-276.3c60.1-31.6 122.3-45.9 182.6-45.9 114.5 0 222.2 51.7 295.7 135.1 0.6-0.4 1.3-0.8 2-1.2 39.4 46 68.4 100.5 82.7 160.7 13.1 51.2 16 106.7 6 164.7l-100.3 585.2c-8.8 51-7.2 102.5 3.7 151.7 4.3 17.1 9.8 34 16.4 50.5l-1.9-1.3c19.8 54.4 51.8 104.6 94.6 146.2l425.1 414.4c232.8 226.9 104.3 622.2-217.3 669l-587.6 85.3c-127.7 18.6-238.1 98.8-295.3 214.6l-262.7 532.4c-71.8 145.5-211.3 218.1-350.8 218.1-75.3 0-150.5-21.1-215.3-63.2v0c-55.7-36.3-104-87.4-137.3-154.9l-262.7-532.4c-57.1-115.8-167.6-196-295.3-214.5l-587.5-85.4c-142.7-20.8-247.2-110-299.2-222.8v0c-65.3-141.5-47.8-319.9 81.8-446.2l167-162.8-57.5 28.2 288.2-259.1c96-86.3 143.4-214.3 126.8-342.3l-56.2-431.7-30.7-179c-43.5-253.4 157.9-459.3 386.4-459.3 60.3 0 122.5 14.3 182.6 45.9l525.5 276.3c57.1 30 119.8 45 182.5 45m-664.3 1841.1-10.2 0.4h1.6 3.9c1.3 0.1 2.5 0.1 3.8 0.1h0.9v-0.5m414.1 331.1h-5.6c4.2 21 7.2 42.4 8.1 64.4l33.3 858.4v0l-35.8-922.8" fill="url(#d)" stroke-linecap="round" vector-effect="non-scaling-stroke"/>
</g>
		<g transform="matrix(.13333 0 0 -.13333 -.0021189 -1.08)" clip-path="url(#g)">
<linearGradient id="c" x2="1" gradientTransform="matrix(-3072.8 2939.9 2939.9 3072.8 14457 10831)" gradientUnits="userSpaceOnUse">
<stop stop-color="#fac10c" offset="0"/>
<stop stop-color="#fac10c" offset=".71508"/>
<stop stop-color="#eeee16" offset="1"/>
</linearGradient>
<clipPath id="g">
	<path transform="matrix(1 0 0 1 0 0) translate(-12008 -13433)" d="m12899 11670c-60.3 0-122.5 14.3-182.6 45.9l-525.5 276.3c-57.1 30-119.8 45-182.5 45-62.7 0-125.4-15-182.5-45l-525.5-276.3c-60.1-31.6-122.3-45.9-182.6-45.9-228.5 0-429.9 205.9-386.4 459.3l30.7 179-20.5-157c-2.1-16.2-2.9-32-3.1-47.7l279.9 571c79.7 162.7 12.5 359.2-150.2 438.9l-407.4 199.7-167 162.8c-129.6 126.3-147.1 304.7-81.8 446.2v0c52 112.8 156.5 202 299.2 222.8l587.5 85.4c127.7 18.5 238.2 98.7 295.3 214.5l262.7 532.4c33.3 67.5 81.6 118.6 137.3 154.9l-33.3-858.4c-0.9-22-3.9-43.4-8.1-64.4h5.6l35.8 922.8v0c64.8 42.1 140 63.2 215.3 63.2 139.5 0 279-72.6 350.8-218.1l262.7-532.4c57.2-115.8 167.6-196 295.3-214.6l587.6-85.3c321.6-46.8 450.1-442.1 217.3-669l-425.1-414.4c-42.8-41.6-74.8-91.8-94.6-146.2l-248.1-173.7c-183.8-128.6-221.5-373-84.2-545.8l280.1-352.4c12.3-15.6 27.3-28.1 43.6-38.4-73.5-83.4-181.2-135.1-295.7-135.1m-1565.1 2208.7 10.2-0.4v0.5h-0.9c-1.3 0-2.5 0-3.8-0.1h-3.9-1.6m1945.5-1914.1c11.2 47.3 13.4 98 4.4 150.9l-101 598.4c-8.7 51.4-6.2 103 6 152.3-10.9-49.2-12.5-100.7-3.7-151.7l100.3-585.2c10-58 7.1-113.5-6-164.7" stroke-linecap="round"/>
</clipPath>
<path transform="translate(-12008 -13433)" d="m12899 11670c-60.3 0-122.5 14.3-182.6 45.9l-525.5 276.3c-57.1 30-119.8 45-182.5 45-62.7 0-125.4-15-182.5-45l-525.5-276.3c-60.1-31.6-122.3-45.9-182.6-45.9-228.5 0-429.9 205.9-386.4 459.3l30.7 179-20.5-157c-2.1-16.2-2.9-32-3.1-47.7l279.9 571c79.7 162.7 12.5 359.2-150.2 438.9l-407.4 199.7-167 162.8c-129.6 126.3-147.1 304.7-81.8 446.2v0c52 112.8 156.5 202 299.2 222.8l587.5 85.4c127.7 18.5 238.2 98.7 295.3 214.5l262.7 532.4c33.3 67.5 81.6 118.6 137.3 154.9l-33.3-858.4c-0.9-22-3.9-43.4-8.1-64.4h5.6l35.8 922.8v0c64.8 42.1 140 63.2 215.3 63.2 139.5 0 279-72.6 350.8-218.1l262.7-532.4c57.2-115.8 167.6-196 295.3-214.6l587.6-85.3c321.6-46.8 450.1-442.1 217.3-669l-425.1-414.4c-42.8-41.6-74.8-91.8-94.6-146.2l-248.1-173.7c-183.8-128.6-221.5-373-84.2-545.8l280.1-352.4c12.3-15.6 27.3-28.1 43.6-38.4-73.5-83.4-181.2-135.1-295.7-135.1m-1565.1 2208.7 10.2-0.4v0.5h-0.9c-1.3 0-2.5 0-3.8-0.1h-3.9-1.6m1945.5-1914.1c11.2 47.3 13.4 98 4.4 150.9l-101 598.4c-8.7 51.4-6.2 103 6 152.3-10.9-49.2-12.5-100.7-3.7-151.7l100.3-585.2c10-58 7.1-113.5-6-164.7" fill="url(#c)" stroke-linecap="round" vector-effect="non-scaling-stroke"/>
</g>
		<g transform="matrix(.13333 0 0 -.13333 1.8643 174.2)">
<path transform="translate(-12022 -12114)" d="m11662 12411-706.6-706.6c104.2-49.6 231-54.6 349.5 7.7l525.5 276.3c114.3 60.1 250.8 60.1 365 0l525.5-276.3c124.8-65.6 258.7-56.7 365.9 0.5l-698.4 698.4c-200.6 200.6-525.8 200.6-726.4 0" fill="#f68c14" stroke-linecap="round" vector-effect="non-scaling-stroke"/>
</g>
		<g transform="matrix(.13333 0 0 -.13333 -133.12 -143.68)">
<path transform="translate(-11009 -14498)" d="m11767 14266 33.3 858.4c-55.7-36.3-103.9-87.4-137.2-154.9l-262.8-532.4c-57.1-115.8-167.5-196-295.3-214.6l-587.5-85.3c-142.6-20.8-247.2-110.1-299.2-222.8l1121.7-43.5c227-8.8 418.2 168.1 427 395.1" fill="#fff" stroke-linecap="round" vector-effect="non-scaling-stroke"/>
</g>
		<g transform="matrix(.13333 0 0 -.13333 -166.83 94.909)" clip-path="url(#f)">
<linearGradient id="b" x2="1" gradientTransform="translate(10461 12104)" gradientUnits="userSpaceOnUse">
<stop stop-color="#f7d708" offset="0"/>
<stop stop-color="#f7d708" offset=".71508"/>
<stop stop-color="#f2ea0c" offset="1"/>
</linearGradient>
<clipPath id="f">
	<path transform="matrix(1 0 0 1 0 0) translate(-10756 -12708)" d="m10738 12104c0.2 15.7 1 31.5 3.1 47.7l20.5 157 69.6 406.2c21.9 127.2-20.3 257-112.7 347.1l-258.2 251.6 407.4-199.7c162.7-79.7 229.9-276.2 150.2-438.9l-279.9-571" stroke-linecap="round"/>
</clipPath>
<path transform="translate(-10756 -12708)" d="m10738 12104c0.2 15.7 1 31.5 3.1 47.7l20.5 157 69.6 406.2c21.9 127.2-20.3 257-112.7 347.1l-258.2 251.6 407.4-199.7c162.7-79.7 229.9-276.2 150.2-438.9l-279.9-571" fill="url(#b)" stroke-linecap="round" vector-effect="non-scaling-stroke"/>
</g>
		<g transform="matrix(.13333 0 0 -.13333 137.5 141.33)" clip-path="url(#e)">
<linearGradient id="a" x2="1" gradientTransform="translate(12788 11805)" gradientUnits="userSpaceOnUse">
<stop stop-color="#f8d309" offset="0"/>
<stop stop-color="#f8d309" offset=".71508"/>
<stop stop-color="#f1eb0e" offset="1"/>
</linearGradient>
<clipPath id="e">
	<path transform="matrix(1 0 0 1 0 0) translate(-13039 -12360)" d="m13195 11805c-16.3 10.3-31.3 22.8-43.6 38.4l-280.1 352.4c-137.3 172.8-99.6 417.2 84.2 545.8l248.1 173.7c-5.9-16.1-10.7-32.5-14.5-49.2-12.2-49.3-14.7-100.9-6-152.3l101-598.4c9-52.9 6.8-103.6-4.4-150.9-15.4-60.3-45.1-114.5-84.7-159.5" stroke-linecap="round"/>
</clipPath>
<path transform="translate(-13039 -12360)" d="m13195 11805c-16.3 10.3-31.3 22.8-43.6 38.4l-280.1 352.4c-137.3 172.8-99.6 417.2 84.2 545.8l248.1 173.7c-5.9-16.1-10.7-32.5-14.5-49.2-12.2-49.3-14.7-100.9-6-152.3l101-598.4c9-52.9 6.8-103.6-4.4-150.9-15.4-60.3-45.1-114.5-84.7-159.5" fill="url(#a)" stroke-linecap="round" vector-effect="non-scaling-stroke"/>
</g>
</g>
</g>
</svg>
