<?xml version="1.0" encoding="UTF-8" standalone="no" ?>
<!DOCTYPE svg PUBLIC "-//W3C//DTD SVG 1.1//EN" "http://www.w3.org/Graphics/SVG/1.1/DTD/svg11.dtd">
<svg xmlns="http://www.w3.org/2000/svg" xmlns:xlink="http://www.w3.org/1999/xlink" version="1.1" width="207.99998" height="279.99998" viewBox="142.6666782667 53.33333933329999 207.99998 279.99998" xml:space="preserve">
<desc>Created with Fabric.js 5.3.0</desc>
<defs>
</defs>
<g transform="matrix(1 0 0 1 246.6666682667 193.3333293333)" id="YAeQDuE3dpqwY8k3CmnqS"  >
<path style="stroke: rgb(192,230,7); stroke-width: 0; stroke-dasharray: none; stroke-linecap: butt; stroke-dashoffset: 0; stroke-linejoin: miter; stroke-miterlimit: 4; fill: rgb(247,47,58); fill-rule: nonzero; opacity: 1;" vector-effect="non-scaling-stroke"  transform=" translate(-103.99999, -139.99999)" d="M 103.99999 0 C 121.66399 0 135.99999 14.336 135.99999 32 C 135.99999 46.90193 125.79682 59.43527 111.99999 62.99051 L 111.99999 73.00948 C 123.23957999999999 75.90576 132.09422 84.7604 134.9905 95.99999 L 145.00947 95.99999 C 148.56471 82.20316 161.09805 71.99999 175.99998 71.99999 C 193.66397999999998 71.99999 207.99998 86.33599 207.99998 103.99999 C 207.99998 121.66399 193.66397999999998 135.99999 175.99998 135.99999 C 161.09805 135.99999 148.56471 125.79682 145.00947 111.99999 L 134.9905 111.99999 C 132.09422 123.23958999999999 123.23957999999999 132.09422999999998 111.99998 134.99051 L 111.99998 145.00948 C 125.79681 148.56472 135.99998 161.09806 135.99998 175.99999 C 135.99998 190.90192 125.79681 203.43526 111.99998 206.9905 L 111.99998 217.00947 C 125.79681 220.56471 135.99999 233.09805 135.99999 247.99998 C 135.99999 265.66398 121.66399 279.99998 103.99999 279.99998 C 86.33599 279.99998 71.99999 265.66398 71.99999 247.99998 C 71.99999 233.09805 82.20316 220.56471 95.99998 217.00947 L 95.99998 206.9905 C 82.20315 203.43526 71.99998 190.90192 71.99998 175.99999 C 71.99998 161.09806 82.20315 148.56472 95.99998 145.00948 L 95.99998 134.99051 C 84.76039 132.09423 75.90575 123.23958999999999 73.00947 111.99999 L 62.99050999999999 111.99999 C 59.435269999999996 125.79682 46.90192999999999 135.99999 31.999999999999993 135.99999 C 14.335999999999991 135.99999 -7.105427357601002e-15 121.66399 -7.105427357601002e-15 103.99999 C -7.105427357601002e-15 86.33599 14.335999999999993 71.99999 31.999999999999993 71.99999 C 46.90192999999999 71.99999 59.43526999999999 82.20316 62.99050999999999 95.99999 L 73.00948 95.99999 C 75.90576 84.7604 84.7604 75.90576 95.99999 73.00948 L 95.99999 62.99051 C 82.20316 59.43527 71.99999 46.90193 71.99999 32 C 71.99999 14.335999999999999 86.33599 0 103.99999 0 z" stroke-linecap="round" />
</g>
</svg>