<?xml version="1.0" encoding="UTF-8" standalone="no" ?>
<!DOCTYPE svg PUBLIC "-//W3C//DTD SVG 1.1//EN" "http://www.w3.org/Graphics/SVG/1.1/DTD/svg11.dtd">
<svg xmlns="http://www.w3.org/2000/svg" xmlns:xlink="http://www.w3.org/1999/xlink" version="1.1" width="64" height="135.9999936" viewBox="204.6666666667 43.33333333329999 64 135.9999936" xml:space="preserve">
<desc>Created with Fabric.js 5.3.0</desc>
<defs>
</defs>
<g transform="matrix(1 0 0 1 236.6666666667 111.3333301333)" id="4f_GaHcdecH1FbWayJt4a"  >
<g style="" vector-effect="non-scaling-stroke"   >
		<g transform="matrix(0.96 0 0 0.96 0 -35.9999968)" id="4_iwDj6_ih0sy1EwvcAEM"  >
<path style="stroke: rgb(192,230,7); stroke-width: 0; stroke-dasharray: none; stroke-linecap: butt; stroke-dashoffset: 0; stroke-linejoin: miter; stroke-miterlimit: 4; fill: rgb(247,47,58); fill-rule: nonzero; opacity: 1;" vector-effect="non-scaling-stroke"  transform=" translate(0, 0)" d="M 0 -33.33333 C 18.4 -33.33333 33.33333 -18.4 33.33333 0 C 33.33333 18.4 18.4 33.33333 0 33.33333 C -18.4 33.33333 -33.33333 18.4 -33.33333 0 C -33.33333 -18.4 -18.4 -33.33333 0 -33.33333 z" stroke-linecap="round" />
</g>
		<g transform="matrix(0.96 0 0 0.96 -0.0000032 36)" id="KHWrUciU1CbvTu6xnh0zY"  >
<path style="stroke: rgb(192,230,7); stroke-width: 0; stroke-dasharray: none; stroke-linecap: butt; stroke-dashoffset: 0; stroke-linejoin: miter; stroke-miterlimit: 4; fill: rgb(247,47,58); fill-rule: nonzero; opacity: 1;" vector-effect="non-scaling-stroke"  transform=" translate(0, 0)" d="M 0 -33.33333 C 18.4 -33.33333 33.33333 -18.4 33.33333 0 C 33.33333 18.4 18.4 33.33333 0 33.33333 C -18.4 33.33333 -33.33333 18.4 -33.33333 0 C -33.33333 -18.4 -18.4 -33.33333 0 -33.33333 z" stroke-linecap="round" />
</g>
		<g transform="matrix(0.24 0 0 0.24 0 0.0000032)" id="1htGwsh4ylc72A3DIqm-K"  >
<path style="stroke: rgb(126,138,64); stroke-width: 0; stroke-dasharray: none; stroke-linecap: butt; stroke-dashoffset: 0; stroke-linejoin: miter; stroke-miterlimit: 4; fill: rgb(247,47,58); fill-rule: nonzero; opacity: 1;" vector-effect="non-scaling-stroke"  transform=" translate(0, 0)" d="M -33.33333 -33.33333 L 33.33334 -33.33333 L 33.33334 33.33334 L -33.33333 33.33334 z" stroke-linecap="round" />
</g>
</g>
</g>
</svg>