<?xml version="1.0" encoding="UTF-8"?>
<!DOCTYPE svg  PUBLIC '-//W3C//DTD SVG 1.1//EN'  'http://www.w3.org/Graphics/SVG/1.1/DTD/svg11.dtd'>
<svg width="208" height="280" version="1.1" viewBox="132.67 43.333 208 280" xml:space="preserve"
    xmlns="http://www.w3.org/2000/svg">
    <desc>Created with Fabric.js 5.3.0</desc>

    <g transform="matrix(.96 0 0 .96 236.67 75.333)">
        <path transform="translate(0)" d="m0-33.333c18.4 0 33.333 14.933 33.333 33.333s-14.933 33.333-33.333 33.333-33.333-14.933-33.333-33.333 14.933-33.333 33.333-33.333z" fill="#f72f3a" stroke-linecap="round" stroke-width="0" vector-effect="non-scaling-stroke"/>
    </g>
    <g transform="matrix(.96 0 0 .96 236.67 147.33)">
        <path transform="translate(0)" d="m0-33.333c18.4 0 33.333 14.933 33.333 33.333s-14.933 33.333-33.333 33.333-33.333-14.933-33.333-33.333 14.933-33.333 33.333-33.333z" fill="#f72f3a" stroke-linecap="round" stroke-width="0" vector-effect="non-scaling-stroke"/>
    </g>
    <g transform="matrix(.96 0 0 .96 308.67 147.33)">
        <path transform="translate(0)" d="m0-33.333c18.4 0 33.333 14.933 33.333 33.333s-14.933 33.333-33.333 33.333-33.333-14.933-33.333-33.333 14.933-33.333 33.333-33.333z" fill="#f72f3a" stroke-linecap="round" stroke-width="0" vector-effect="non-scaling-stroke"/>
    </g>
    <g transform="matrix(.24 0 0 .24 236.67 111.33)">
        <path transform="translate(-5e-6 -5e-6)" d="m-33.333-33.333h66.667v66.667h-66.667z" fill="#f72f3a" stroke-linecap="round" stroke-width="0" vector-effect="non-scaling-stroke"/>
    </g>
    <g transform="matrix(.24 0 0 .24 236.67 183.33)">
        <path transform="translate(-5e-6 -5e-6)" d="m-33.333-33.333h66.667v66.667h-66.667z" fill="#f72f3a" stroke-linecap="round" stroke-width="0" vector-effect="non-scaling-stroke"/>
    </g>
    <g transform="matrix(.24 0 0 .24 236.67 255.33)">
        <path transform="translate(-5e-6 -5e-6)" d="m-33.333-33.333h66.667v66.667h-66.667z" fill="#f72f3a" stroke-linecap="round" stroke-width="0" vector-effect="non-scaling-stroke"/>
    </g>
    <g transform="matrix(.24 0 0 .24 272.67 147.33)">
        <path transform="translate(-5e-6 -5e-6)" d="m-33.333-33.333h66.667v66.667h-66.667z" fill="#f72f3a" stroke-linecap="round" stroke-width="0" vector-effect="non-scaling-stroke"/>
    </g>
    <g transform="matrix(.24 0 0 .24 200.67 147.33)">
        <path transform="translate(-5e-6 -5e-6)" d="m-33.333-33.333h66.667v66.667h-66.667z" fill="#f72f3a" stroke-linecap="round" stroke-width="0" vector-effect="non-scaling-stroke"/>
    </g>
    <g transform="matrix(.96 0 0 .96 164.67 147.33)">
        <path transform="translate(0)" d="m0-33.333c18.4 0 33.333 14.933 33.333 33.333s-14.933 33.333-33.333 33.333-33.333-14.933-33.333-33.333 14.933-33.333 33.333-33.333z" fill="#f72f3a" stroke-linecap="round" stroke-width="0" vector-effect="non-scaling-stroke"/>
    </g>
    <g transform="matrix(.96 0 0 .96 236.67 219.33)">
        <path transform="translate(0)" d="m0-33.333c18.4 0 33.333 14.933 33.333 33.333s-14.933 33.333-33.333 33.333-33.333-14.933-33.333-33.333 14.933-33.333 33.333-33.333z" fill="#f72f3a" stroke-linecap="round" stroke-width="0" vector-effect="non-scaling-stroke"/>
    </g>
    <g transform="matrix(.96 0 0 .96 236.67 291.33)">
        <path transform="translate(0)" d="m0-33.333c18.4 0 33.333 14.933 33.333 33.333s-14.933 33.333-33.333 33.333-33.333-14.933-33.333-33.333 14.933-33.333 33.333-33.333z" fill="#f72f3a" stroke-linecap="round" stroke-width="0" vector-effect="non-scaling-stroke"/>
    </g>
</svg>
